<?xml version="1.0" standalone="no"?>
<!DOCTYPE svg PUBLIC "-//W3C//DTD SVG 1.1//EN" "http://www.w3.org/Graphics/SVG/1.1/DTD/svg11.dtd" >
<svg>
<metadata>
Created by FontForge 20110222 at Mon Mar  7 11:20:43 2011
 By www-data
This font has been released into the public domain by its author, Barry Schwartz. This applies worldwide.

In some countries this may not be legally possible; if so:

Barry Schwartz grants anyone the right to use this work for any purpose, without any conditions, unless such conditions are required by law.
</metadata>
<defs>
<font id="GoudyBookletter1911" horiz-adv-x="227" >
  <font-face 
    font-family="Goudy Bookletter 1911"
    font-weight="400"
    font-stretch="normal"
    units-per-em="1000"
    panose-1="2 0 5 3 0 0 0 0 0 0"
    ascent="737"
    descent="-263"
    x-height="415"
    cap-height="680"
    bbox="-82 -294 1042 899"
    underline-thickness="45"
    underline-position="-90"
    stemh="50"
    stemv="68"
    unicode-range="U+0020-2122"
  />
    <missing-glyph />
    <glyph glyph-name="space" unicode=" " horiz-adv-x="250" 
 />
    <glyph glyph-name="exclam" unicode="!" horiz-adv-x="325" 
d="M194 674c9 0 10 -7 10 -26v-23c0 -214 -38 -393 -45 -414c-2 -6 -7 -16 -17 -16c-13 0 -15 15 -15 30v17c-6 222 -19 368 -19 369c0 14 5 18 13 23c68 40 67 40 73 40zM166 85c27 0 51 -22 51 -51c0 -27 -22 -50 -51 -50c-27 0 -52 21 -52 51s25 50 52 50z" />
    <glyph glyph-name="quotedbl" unicode="&#x22;" horiz-adv-x="389" 
d="M150 715c23 0 37 -18 37 -38c0 -16 -8 -28 -14 -39c-32 -57 -94 -167 -97 -171c-5 -6 -11 -10 -18 -10c-12 0 -20 11 -20 22v1c0 7 1 8 59 179c9 24 22 56 53 56zM316 715c22 0 36 -18 36 -38c0 -16 -7 -28 -13 -39c-33 -57 -94 -167 -98 -171c-5 -6 -11 -10 -18 -10
c-12 0 -20 11 -20 22v1c0 7 1 8 60 179c8 24 21 56 53 56z" />
    <glyph glyph-name="numbersign" unicode="#" horiz-adv-x="552" 
d="M346 348c0 3 -1 5 -7 5h-105c-7 0 -8 -3 -9 -7c-6 -46 -19 -134 -19 -139c0 -4 3 -5 8 -5h102c4 0 10 0 11 8c14 101 19 129 19 138zM404 615h7c10 0 16 -3 16 -11c0 -10 -27 -191 -27 -201c0 -3 1 -5 5 -5h74c15 0 19 -8 19 -26c0 -16 -6 -19 -16 -19h-86
c-4 0 -4 -3 -5 -6c-6 -46 -19 -135 -19 -139s2 -6 7 -6h101c11 0 18 -3 18 -22c0 -16 -4 -23 -18 -23h-104c-10 0 -12 -5 -13 -11c-25 -178 -23 -173 -26 -179c-4 -8 -12 -10 -22 -10c-15 0 -20 6 -20 14c0 7 24 175 24 180s-4 6 -8 6h-69c-41 0 -43 -1 -44 -8
c-25 -180 -24 -178 -26 -183c-4 -7 -10 -9 -25 -9c-10 0 -19 3 -19 14c0 6 25 174 25 179s-3 7 -9 7h-74c-14 0 -16 8 -16 19c0 17 0 26 16 26h87c2 0 3 0 3 2c7 48 20 139 20 144c0 4 -3 5 -7 5h-101c-11 0 -18 3 -18 22c0 15 4 23 18 23h108c7 0 9 3 9 8
c28 198 26 196 29 201c4 6 9 8 23 8h1c8 0 20 -1 20 -13c0 -7 -28 -193 -28 -199c0 -4 3 -5 8 -5h104c4 0 8 0 9 7c28 198 27 199 30 203c4 6 12 7 16 7h3z" />
    <glyph glyph-name="dollar" unicode="$" horiz-adv-x="482" 
d="M376 531c0 -25 -16 -44 -41 -44c-63 0 -38 99 -100 112h-2c-2 0 -5 -1 -5 -5v-174c0 -6 -1 -13 -1 -16c0 -20 12 -17 48 -32c86 -37 108 -89 118 -122c6 -20 9 -41 9 -61c0 -112 -83 -172 -167 -186c-8 -2 -8 -6 -8 -12v-69c0 -10 -4 -19 -20 -19c-15 0 -20 8 -20 19v69
c0 7 -2 10 -9 10c-99 3 -162 79 -162 132c0 31 21 55 49 55c23 0 42 -17 42 -46c0 -12 -3 -22 -3 -35c0 -52 54 -65 77 -65c3 0 5 1 5 4v260c0 10 -3 12 -9 13c-93 20 -136 100 -136 165c0 81 59 146 136 152c6 1 9 2 9 8v21c0 7 1 20 20 20h1c17 0 21 -10 21 -20v-19v-2
c0 -3 1 -6 6 -6c88 -10 142 -65 142 -107zM183 599c-17 0 -84 -28 -84 -95c0 -71 78 -95 82 -95s5 2 5 5v75v83c0 25 0 27 -3 27zM234 295c-6 0 -7 -4 -7 -9c0 -121 -1 -181 -1 -211c0 -31 1 -31 4 -31h2c15 0 100 38 100 127c0 88 -87 124 -98 124z" />
    <glyph glyph-name="percent" unicode="%" horiz-adv-x="820" 
d="M213 -123c-12 0 -25 8 -25 19c0 5 2 8 4 12c395 674 394 673 398 677c5 6 13 10 23 10c8 0 30 -4 30 -18c0 -4 -2 -8 -4 -11c-401 -676 -399 -673 -404 -678c-5 -6 -12 -11 -22 -11zM179 515c-64 0 -78 -88 -78 -136c0 -41 12 -123 48 -154c17 -14 35 -17 44 -17
c59 0 70 64 73 85c3 18 5 37 5 55c0 78 -31 167 -92 167zM193 553c55 0 138 -40 138 -178c0 -121 -61 -205 -152 -205c-55 0 -138 39 -138 176c0 138 72 207 152 207zM627 252c-64 0 -79 -87 -79 -134l1 -2c0 -40 12 -122 48 -153c17 -15 35 -17 44 -17c59 0 70 64 73 84
c3 18 5 37 5 56c0 77 -31 166 -92 166zM641 290c55 0 138 -40 138 -178c0 -120 -61 -205 -152 -205c-55 0 -138 39 -138 176c0 138 72 207 152 207z" />
    <glyph glyph-name="ampersand" unicode="&#x26;" horiz-adv-x="828" 
d="M100 422c0 11 -42 41 -42 107c0 90 82 172 175 172c36 0 107 -13 107 -61c0 -26 -23 -45 -45 -45c-41 0 -43 50 -87 50c-42 0 -106 -44 -106 -116c0 -41 25 -83 39 -83c8 0 50 27 110 27c49 0 87 -22 87 -56s-41 -57 -92 -57h-1c-55 0 -89 24 -96 24
c-8 0 -12 -11 -13 -12c-18 -32 -27 -68 -27 -104c0 -85 58 -205 250 -214h18c162 0 209 104 209 173c0 67 -41 120 -104 120c-59 0 -108 -47 -108 -96c0 -32 23 -62 58 -62c13 0 36 7 36 17c0 11 -22 4 -37 24c-4 6 -7 14 -7 22c0 19 16 36 39 36c29 0 58 -24 58 -58
c0 -39 -37 -76 -86 -76c-54 0 -97 45 -97 101c0 53 37 103 97 133c84 42 178 33 247 63c42 19 86 58 86 119c0 63 -47 107 -95 107c-9 0 -30 -2 -30 -9c0 -5 16 -12 16 -35c0 -22 -17 -41 -41 -41c-26 0 -45 23 -45 49c0 43 42 74 88 74c71 0 148 -68 148 -167
c0 -108 -97 -194 -209 -196c-8 0 -15 0 -15 -8c0 -7 34 -43 34 -112v-2c0 -134 -134 -253 -298 -253c-167 0 -291 125 -291 268c0 105 64 162 68 169c1 2 2 5 2 7v1zM261 392c20 0 42 4 42 23c0 10 -7 25 -43 25c-50 0 -84 -14 -84 -23c0 -3 2 -5 3 -6c24 -18 49 -19 82 -19
z" />
    <glyph glyph-name="quotesingle" unicode="'" horiz-adv-x="224" 
d="M150 715c23 0 37 -18 37 -38c0 -15 -8 -28 -14 -39c-32 -57 -94 -167 -97 -171c-5 -6 -11 -10 -18 -10c-12 0 -20 11 -20 23v1c0 6 1 7 59 178c9 24 22 56 53 56z" />
    <glyph glyph-name="parenleft" unicode="(" horiz-adv-x="363" 
d="M316 -174c0 -12 -10 -20 -21 -20c-9 0 -17 4 -24 10c-134 105 -226 268 -226 446c0 161 80 328 222 442c8 6 18 14 30 14s21 -8 21 -19c0 -12 -9 -20 -14 -24c-101 -91 -183 -233 -183 -412c0 -162 67 -308 179 -410c5 -5 16 -14 16 -27z" />
    <glyph glyph-name="parenright" unicode=")" horiz-adv-x="363" 
d="M48 701c0 13 10 21 21 21c9 0 16 -5 24 -11c134 -105 225 -268 225 -446c0 -161 -80 -328 -222 -442c-8 -6 -18 -14 -30 -14c-11 0 -21 8 -21 20c0 11 10 19 15 24c101 91 182 232 182 411c0 163 -66 308 -178 411c-6 5 -16 13 -16 26z" />
    <glyph glyph-name="asterisk" unicode="*" horiz-adv-x="335" 
d="M321 617c0 -42 -93 -50 -93 -65c0 -18 91 -8 91 -65c0 -23 -19 -39 -38 -39c-35 0 -65 53 -76 53c-6 0 -7 -3 -7 -9c0 -25 9 -55 9 -69c0 -31 -32 -39 -42 -39c-12 0 -36 9 -36 42c0 21 7 46 7 60c0 6 -1 11 -6 11c-16 0 -47 -44 -84 -44c-25 0 -32 28 -32 35
c0 45 91 54 91 72c0 20 -88 11 -88 64c0 21 21 35 38 35c33 0 54 -53 78 -53c3 0 5 1 5 7c0 12 -9 39 -9 63c0 35 20 45 40 45c28 0 39 -20 39 -46c0 -28 -12 -59 -12 -66c0 -1 1 -2 2 -2c13 0 49 49 84 49c19 0 39 -17 39 -39z" />
    <glyph glyph-name="plus" unicode="+" horiz-adv-x="701" 
d="M76 231c-15 0 -23 4 -23 22v13c0 21 13 22 24 22h245v249c0 13 4 20 20 20h14c22 0 24 -14 24 -26v-243h249c13 0 20 -4 20 -19v-14c0 -23 -14 -24 -27 -24h-242v-247c0 -15 -5 -22 -22 -22h-14c-21 0 -22 12 -22 23v246h-246z" />
    <glyph glyph-name="comma" unicode="," 
d="M100 100c47 0 88 -51 88 -115c0 -89 -80 -132 -101 -132c-10 0 -19 6 -19 17c0 17 20 18 43 39s26 38 26 47c0 51 -65 26 -90 63c-5 7 -8 16 -8 26c0 32 30 55 61 55z" />
    <glyph glyph-name="hyphen" unicode="-" 
d="M199 335c13 0 16 -17 16 -39c0 -13 -8 -20 -18 -28c-146 -102 -154 -114 -167 -114c-15 0 -18 14 -18 26v14c0 14 3 17 19 28c152 106 158 113 168 113z" />
    <glyph glyph-name="period" unicode="." 
d="M113 101c32 0 60 -26 60 -59c0 -31 -25 -59 -59 -59c-31 0 -60 25 -60 60s28 58 59 58z" />
    <glyph glyph-name="slash" unicode="/" horiz-adv-x="435" 
d="M36 -187c-8 0 -30 1 -30 14c0 5 0 4 377 744c3 5 6 9 15 9c8 0 31 -3 31 -18c0 -6 -2 -8 -171 -328c-209 -415 -206 -414 -209 -417c-4 -3 -8 -4 -13 -4z" />
    <glyph glyph-name="zero" unicode="0" horiz-adv-x="475" 
d="M235 440c121 0 221 -102 221 -229c0 -126 -100 -229 -222 -229c-120 0 -222 100 -222 229c0 127 101 229 223 229zM234 385c-86 0 -156 -77 -156 -170c0 -95 71 -173 159 -173c80 0 157 67 157 169c0 100 -76 174 -160 174z" />
    <glyph glyph-name="one" unicode="1" horiz-adv-x="356" 
d="M164 421c73 0 110 3 122 3s14 -8 14 -22c0 -21 -13 -17 -75 -21c-12 -1 -14 -6 -14 -16v-304c0 -12 3 -20 18 -21c72 -6 89 0 89 -28c0 -11 -6 -18 -17 -18c-4 0 -58 6 -124 6c-65 0 -118 -6 -122 -6c-12 0 -14 9 -14 21c0 15 8 18 18 19c70 6 76 1 76 24v307
c0 13 -6 15 -15 16c-79 4 -94 -3 -94 27c0 10 5 16 15 16c12 0 49 -3 123 -3z" />
    <glyph glyph-name="two" unicode="2" horiz-adv-x="450" 
d="M76 -13c-22 0 -27 12 -27 19c0 18 18 16 79 63c46 36 88 77 124 123c9 12 24 32 24 58c0 64 -74 112 -132 112c-52 0 -81 -36 -83 -71c0 -11 -1 -26 -15 -26h-1c-8 0 -20 7 -20 36c0 72 59 123 138 123c91 0 175 -60 175 -146c0 -81 -72 -129 -144 -205
c-2 -3 -4 -5 -4 -7c0 -4 2 -8 11 -8c2 0 48 2 73 4c42 3 82 13 115 83c2 5 5 10 12 10c2 0 18 -1 18 -12c0 -5 0 -3 -37 -128c-5 -16 -14 -14 -29 -15c-93 -4 -268 -13 -277 -13z" />
    <glyph glyph-name="three" unicode="3" horiz-adv-x="360" 
d="M119 443c40 0 153 -33 153 -117c0 -60 -58 -141 -58 -146c0 -12 26 -6 68 -31c26 -15 57 -46 57 -114c0 -31 -7 -106 -43 -152c-35 -46 -99 -65 -153 -65c-80 0 -115 50 -115 73c0 24 22 40 44 40c51 0 41 -70 122 -70c68 0 91 68 91 129c0 62 -24 114 -122 114
c-24 0 -32 -2 -40 -2c-12 0 -17 8 -17 13c0 10 6 8 35 36c33 32 64 73 64 122c0 35 -18 97 -92 97c-47 0 -52 -20 -52 -38c0 -9 1 -19 1 -21c0 -10 -14 -13 -18 -13c-11 0 -18 9 -18 41c0 53 32 104 93 104z" />
    <glyph glyph-name="four" unicode="4" horiz-adv-x="447" 
d="M40 0c-8 0 -17 2 -17 14s10 22 17 32c260 374 254 365 261 374c4 5 9 9 16 9c6 0 14 -3 14 -18l-1 -326c0 -7 2 -11 10 -11h16c30 0 34 2 42 2c15 0 20 -5 20 -13c0 -2 -7 -54 -11 -59c-3 -3 -6 -4 -12 -4h-56c-5 0 -9 -1 -9 -7v-167c0 -8 -1 -12 -10 -12h-40
c-9 0 -10 5 -10 12v164c0 6 -1 10 -8 10h-222zM260 66c8 0 10 7 10 13v213c0 4 -1 8 -5 8s-5 -3 -6 -4c-150 -222 -150 -222 -150 -225c0 -2 1 -5 6 -5h145z" />
    <glyph glyph-name="five" unicode="5" horiz-adv-x="381" 
d="M117 257c91 0 179 -74 179 -196c0 -59 -22 -112 -47 -149c-37 -55 -109 -106 -135 -106c-8 0 -17 5 -17 15c0 22 53 23 102 98c19 30 36 71 36 119c0 96 -67 153 -133 153c-28 0 -45 -10 -51 -10c-9 0 -13 7 -13 15c0 7 63 225 63 226c2 5 7 13 17 13
c12 0 152 -48 167 -48c18 0 35 36 42 43c4 3 7 3 8 3c6 0 16 -5 16 -14c0 -4 0 -3 -46 -109c-2 -6 -5 -11 -13 -11c-12 0 -155 47 -163 48h-1c-11 0 -11 -10 -30 -79c0 -1 -1 -3 -1 -5s2 -6 7 -6h13z" />
    <glyph glyph-name="six" unicode="6" horiz-adv-x="483" 
d="M368 142c0 88 -53 223 -168 223c-82 0 -103 -81 -103 -148c0 -119 72 -205 156 -205c64 0 115 49 115 130zM204 401c130 0 241 -98 241 -232c0 -106 -76 -197 -190 -197c-109 0 -222 91 -222 255c0 191 151 365 351 402c2 1 4 1 7 1c13 0 20 -14 20 -23
c0 -11 -9 -15 -16 -18c-99 -32 -187 -96 -246 -187c0 -1 -1 -2 -1 -3c0 -2 2 -3 4 -3c1 0 24 5 52 5z" />
    <glyph glyph-name="seven" unicode="7" horiz-adv-x="450" 
d="M52 217c-5 0 -17 3 -17 16c0 9 17 97 19 218c0 11 3 19 18 19c16 0 14 -12 21 -46c2 -11 7 -12 14 -12h302c12 0 22 -3 22 -18v-1c0 -7 -1 -8 -58 -178c-143 -434 -121 -431 -145 -433c-6 -1 -13 -1 -19 -1h-1h-6c-16 0 -28 1 -28 14c0 6 0 5 111 330
c44 121 65 176 65 183c0 19 -18 22 -30 24c-33 3 -65 5 -99 5c-43 0 -98 -4 -109 -7c-19 -4 -17 -9 -44 -98c-2 -6 -5 -15 -16 -15z" />
    <glyph glyph-name="eight" unicode="8" horiz-adv-x="447" 
d="M102 514c0 -99 100 -148 124 -148c6 0 10 3 14 7c34 31 60 78 60 130c0 63 -42 118 -102 118h-1c-54 -1 -95 -49 -95 -107zM220 25c65 0 122 47 122 111c0 67 -64 126 -144 166c-5 3 -10 6 -15 6c-14 0 -93 -69 -93 -157c0 -75 61 -126 130 -126zM209 -22
c-108 0 -193 82 -193 175c0 59 34 96 69 124c59 46 60 45 60 49c0 2 -2 4 -5 6c-59 40 -107 102 -107 170c0 79 71 166 176 166c86 0 165 -47 165 -142c0 -68 -45 -135 -106 -169c-2 -1 -3 -3 -3 -5s2 -3 3 -4c93 -42 157 -112 157 -187c0 -97 -103 -183 -216 -183z" />
    <glyph glyph-name="nine" unicode="9" horiz-adv-x="509" 
d="M105 250c0 -96 61 -216 179 -216c65 0 87 31 100 71c7 23 11 47 11 71c0 115 -84 207 -174 207c-52 0 -116 -37 -116 -133zM275 -5c-135 0 -243 109 -243 232c0 115 95 201 206 201c126 0 234 -110 234 -253c0 -151 -124 -319 -317 -379c-15 -4 -25 -7 -31 -7
c-15 0 -19 18 -19 24c0 10 7 14 17 17c157 49 237 171 237 175c0 2 -1 3 -3 3s-38 -13 -81 -13z" />
    <glyph glyph-name="colon" unicode=":" horiz-adv-x="228" 
d="M124 411c32 0 60 -26 60 -59c0 -31 -26 -59 -60 -59c-31 0 -59 25 -59 60c0 34 28 58 59 58zM124 101c32 0 60 -26 60 -59c0 -31 -26 -59 -60 -59c-31 0 -59 25 -59 60s28 58 59 58z" />
    <glyph glyph-name="semicolon" unicode=";" 
d="M124 100c47 0 88 -51 88 -115c0 -89 -80 -132 -102 -132c-9 0 -18 6 -18 17c0 17 20 18 43 39c22 21 26 38 26 47v1c-1 50 -65 25 -90 62c-6 7 -8 16 -8 26c0 32 30 55 61 55zM124 411c32 0 60 -26 60 -59c0 -31 -26 -59 -60 -59c-31 0 -59 25 -59 60c0 34 28 58 59 58z
" />
    <glyph glyph-name="less" unicode="&#x3c;" horiz-adv-x="672" 
d="M52 249c0 11 10 15 18 18c521 190 520 191 528 191c12 0 23 -11 23 -38c0 -12 -9 -17 -19 -20l-441 -161l447 -162c8 -3 13 -8 13 -17c0 -10 -6 -37 -29 -37c-8 0 -5 0 -523 189c-9 3 -17 7 -17 18v19z" />
    <glyph glyph-name="equal" unicode="=" horiz-adv-x="701" 
d="M76 305c-15 0 -23 4 -23 22v14c0 21 12 22 23 22h552c13 0 20 -4 20 -20v-13c0 -23 -14 -25 -26 -25h-546zM76 156c-15 0 -22 5 -22 22v14c0 21 12 22 23 22h552c13 0 20 -4 20 -20v-14c0 -23 -14 -24 -26 -24h-547z" />
    <glyph glyph-name="greater" unicode="&#x3e;" horiz-adv-x="672" 
d="M621 249v-19c0 -11 -8 -15 -17 -18c-516 -188 -516 -189 -523 -189c-23 0 -29 27 -29 37c0 9 5 14 13 17l447 162l-441 161c-10 3 -19 8 -19 20c0 27 11 38 23 38c8 0 7 -1 528 -191c8 -3 18 -7 18 -18z" />
    <glyph glyph-name="question" unicode="?" horiz-adv-x="380" 
d="M159 101c32 0 60 -26 60 -59c0 -31 -26 -59 -60 -59c-31 0 -60 25 -60 60s29 58 60 58zM160 689c128 0 177 -88 177 -147c0 -125 -166 -152 -166 -292c0 -9 1 -15 1 -22c0 -27 -16 -36 -26 -36c-11 0 -27 8 -27 55c0 131 133 185 133 300c0 57 -38 104 -87 104
c-64 0 -58 -74 -108 -74c-24 0 -42 20 -42 44c0 12 3 46 64 59c26 6 54 9 81 9z" />
    <glyph glyph-name="at" unicode="@" horiz-adv-x="1000" 
d="M725 -71c5 0 12 -3 12 -12c0 -24 -79 -60 -120 -73c-44 -14 -89 -20 -135 -20h-1c-218 1 -393 135 -393 362v1c0 97 35 269 237 370c54 27 130 54 217 54c196 0 324 -142 324 -315c0 -170 -117 -304 -234 -304c-96 0 -94 74 -101 74c-2 0 -3 -2 -5 -4
c-29 -36 -78 -76 -131 -76c-51 0 -93 39 -93 97c0 93 125 242 202 289c23 14 48 24 75 24c18 0 24 -3 29 -3c13 0 18 26 25 32c4 3 9 4 13 4c11 0 23 -6 23 -17c0 -14 -38 -106 -69 -287c-2 -9 -5 -25 -5 -39c0 -38 28 -48 48 -48c41 0 98 29 130 74c33 46 51 118 51 188v1
c0 177 -128 271 -281 271c-194 0 -373 -147 -373 -374c0 -195 132 -336 330 -336c97 0 175 33 206 58c5 3 12 9 19 9zM587 353c0 6 -4 10 -11 10c-37 0 -137 -76 -186 -201c-8 -19 -14 -40 -14 -60c0 -40 25 -50 42 -50c20 0 68 18 98 53c16 18 19 19 22 34
c49 212 49 210 49 214z" />
    <glyph glyph-name="A" unicode="A" horiz-adv-x="821" 
d="M137 0c-59 0 -105 -6 -108 -6c-16 0 -20 13 -20 21c0 27 15 26 45 30c32 4 42 14 57 48c48 107 99 214 153 320c150 285 143 275 155 285c7 5 15 8 24 8c26 0 38 -28 42 -38l144 -332c109 -265 105 -259 111 -268c25 -37 69 -15 75 -39c1 -4 2 -11 2 -13
c0 -13 -7 -22 -20 -22c-4 0 -54 6 -115 6c-72 0 -107 -6 -119 -6c-14 0 -20 7 -20 17c0 31 11 28 59 34c5 1 20 2 20 19c0 18 -36 137 -75 226c-4 9 -9 10 -18 10h-235c-11 0 -17 -1 -23 -12c-49 -91 -87 -196 -87 -216c0 -28 21 -27 63 -32c9 -1 22 -4 22 -24
c0 -13 -9 -22 -22 -22c-11 0 -44 6 -110 6zM509 352c5 0 9 1 9 7c0 10 -73 182 -88 206c-3 5 -6 7 -11 7c-9 0 -15 -10 -19 -17c-62 -116 -102 -193 -102 -199c0 -2 2 -4 6 -4h205z" />
    <glyph glyph-name="B" unicode="B" horiz-adv-x="564" 
d="M90 686c61 0 114 9 174 9c41 0 114 -4 166 -40c29 -21 61 -61 61 -115c0 -63 -42 -121 -95 -154c-1 -1 -2 -2 -2 -3s1 -2 3 -3c77 -15 139 -85 139 -174c0 -96 -68 -163 -127 -189c-11 -5 -48 -23 -120 -23c-46 0 -91 6 -137 6c-35 0 -69 -2 -114 -2h-2
c-10 0 -19 1 -19 24c0 19 13 18 56 23c11 2 21 3 21 20v547c0 28 -18 29 -52 32c-10 0 -18 4 -18 25c0 11 6 18 18 18c4 0 19 -1 48 -1zM402 519c0 48 -30 132 -147 132c-20 0 -60 -3 -70 -11c-5 -4 -5 -9 -5 -13v-2v-214c0 -8 1 -13 10 -13h45h13c40 0 108 3 140 64
c9 18 14 37 14 57zM257 41c99 0 190 55 190 160c0 59 -31 129 -118 148c-27 6 -56 6 -84 6h-51c-13 0 -14 -7 -14 -15v-258c0 -17 1 -32 30 -37c15 -2 31 -4 47 -4z" />
    <glyph glyph-name="C" unicode="C" horiz-adv-x="700" 
d="M115 354c0 -184 125 -327 281 -327c115 0 224 77 261 197c1 3 3 13 15 13c7 0 16 -3 16 -11c0 0 -22 -156 -25 -163c-4 -15 -17 -16 -22 -16h-1h-28c-24 0 -26 -8 -47 -21c-64 -37 -129 -50 -185 -50c-93 0 -186 38 -253 103c-68 66 -108 161 -108 256
c0 101 46 196 111 259c68 65 162 102 255 102h1c121 0 183 -53 196 -53c17 0 10 31 29 36c3 0 9 1 11 1c10 0 12 -6 13 -12c0 -1 27 -202 27 -212c0 -7 -3 -17 -20 -17c-26 0 -24 7 -29 47c-4 27 -8 43 -26 66c-41 52 -112 98 -204 98c-137 0 -268 -111 -268 -296z" />
    <glyph glyph-name="D" unicode="D" horiz-adv-x="709" 
d="M300 48c146 0 295 91 295 268c0 96 -41 196 -120 255c-66 48 -146 62 -208 62c-58 0 -67 -6 -67 -31v-509c0 -25 10 -34 36 -39c21 -4 42 -6 64 -6zM11 654c0 19 13 21 22 21h182c98 0 201 -3 290 -44c99 -46 190 -146 190 -288c0 -177 -147 -311 -290 -337
c-29 -5 -59 -6 -89 -6h-283c-9 0 -23 2 -23 28c0 25 21 21 74 24c23 1 27 14 27 36v506c0 39 -23 35 -82 37c-15 0 -18 9 -18 23z" />
    <glyph glyph-name="E" unicode="E" horiz-adv-x="578" 
d="M436 513c26 0 28 -18 28 -29v-184c0 -11 -2 -29 -28 -29c-25 0 -27 13 -27 22v54c0 20 -12 22 -26 22h-138c-23 0 -49 -2 -49 -40v-229c0 -18 3 -34 32 -38c31 -5 62 -7 93 -7c32 0 124 6 144 21c18 14 53 97 69 107c4 2 7 3 10 3c7 0 18 -6 18 -23v-1
c0 -6 -1 -8 -31 -142c-3 -15 -9 -20 -30 -20h-344c-75 0 -106 -12 -124 -12c-19 0 -24 25 -24 30c0 18 10 18 76 43c19 7 22 17 22 39v521c0 15 -5 16 -27 20c-39 6 -66 -1 -66 28c0 20 10 22 19 22h460c14 0 19 -6 22 -16c9 -45 29 -128 29 -133c0 -6 -4 -15 -21 -15
s-23 11 -28 18c-50 89 -47 93 -78 93h-188c-29 0 -31 -19 -31 -38v-151c0 -10 1 -22 20 -22h153c17 0 38 1 38 33v31c0 10 3 22 27 22z" />
    <glyph glyph-name="F" unicode="F" horiz-adv-x="541" 
d="M450 483c0 -10 -4 -37 -4 -93c0 -57 4 -85 4 -94c0 -21 -16 -26 -27 -26c-24 0 -21 18 -28 76c-1 11 -6 14 -18 14h-163c-21 0 -22 -14 -22 -28v-248c0 -17 0 -35 41 -37c65 -2 88 4 88 -23v-9c0 -11 -4 -21 -17 -21c-5 0 -63 6 -135 6c-73 0 -131 -6 -135 -6
c-15 0 -23 9 -23 23c0 29 14 24 57 28c26 3 30 14 30 31v530c0 32 -15 29 -65 31c-5 0 -23 0 -23 21c0 23 7 30 18 30c9 0 34 -4 84 -4c38 0 108 3 162 3h190h5c12 0 27 -1 33 -25c6 -27 23 -101 23 -107c0 -14 -9 -23 -20 -23c-20 0 -26 17 -63 83c-10 16 -15 21 -35 21
h-184c-27 0 -29 -17 -29 -36v-167c0 -10 3 -15 15 -15h167c21 0 18 9 27 59c2 13 7 27 24 27c13 0 23 -8 23 -21z" />
    <glyph glyph-name="G" unicode="G" horiz-adv-x="691" 
d="M366 -24c-187 0 -350 168 -350 378c0 203 152 352 336 352c119 0 191 -62 203 -65h4c19 0 33 33 44 39c3 2 7 3 12 3c7 0 14 -3 14 -14v-27c0 -102 11 -181 11 -185c0 -10 -7 -16 -29 -16c-32 0 -4 32 -54 101c-49 67 -130 116 -217 116c-101 0 -224 -74 -224 -291
c0 -264 157 -338 261 -338c86 0 156 48 165 65c3 6 3 12 3 17v113c0 33 -21 29 -94 36c-12 1 -28 5 -28 23c0 12 7 23 22 23c11 0 41 -4 103 -4h2c64 0 97 4 107 4c19 0 26 -12 26 -21c0 -31 -47 -21 -53 -46c-1 -3 -1 -6 -1 -10v-169c0 -11 -3 -20 -14 -20
c-12 0 -21 21 -30 21c-6 0 -11 -5 -14 -8c-62 -54 -138 -77 -205 -77z" />
    <glyph glyph-name="H" unicode="H" horiz-adv-x="762" 
d="M158 0c-67 0 -119 -6 -123 -6c-16 0 -20 12 -20 27c0 22 13 19 68 23c24 2 26 15 26 32v529c0 32 -21 30 -51 34c-18 3 -44 -1 -44 21c0 7 4 27 23 27c12 0 47 -2 117 -2h3c72 0 108 2 120 2c15 0 17 -9 19 -21c0 -3 1 -6 1 -9c0 -20 -15 -17 -76 -21
c-20 -1 -23 -12 -23 -30v-165c0 -8 2 -14 13 -14h338c16 0 17 10 17 18v148c0 17 -1 36 -21 43c-26 11 -71 -5 -71 27c0 15 8 24 24 24c10 0 41 -2 103 -2c71 0 127 4 131 4c12 0 19 -8 19 -20c0 -29 -22 -26 -69 -33c-25 -3 -27 -16 -27 -29v-525v-5c0 -12 2 -30 28 -32
c38 -3 62 1 62 -25c0 -12 -4 -26 -20 -26c-4 0 -57 6 -122 6s-117 -6 -121 -6c-13 0 -16 10 -16 20c0 31 10 26 71 31c28 1 30 16 30 38v271c0 9 -4 11 -13 11h-341c-13 0 -15 -7 -15 -17v-271c0 -14 0 -28 48 -33c15 -2 49 1 49 -22c0 -17 -3 -28 -16 -28
c-3 0 -56 6 -121 6z" />
    <glyph glyph-name="I" unicode="I" horiz-adv-x="323" 
d="M52 680c4 0 53 -5 115 -5c63 0 94 4 104 4c8 0 17 -3 17 -19c0 -30 -12 -27 -63 -32c-14 -1 -16 -9 -16 -17v-540c0 -10 0 -23 18 -25c56 -4 79 1 79 -23c0 -12 -3 -29 -20 -29c-4 0 -59 6 -127 6s-124 -6 -128 -6c-15 0 -16 12 -17 23c-1 3 -1 6 -1 9c0 21 14 17 84 22
c18 1 21 11 21 28v520c0 6 1 11 1 14c0 21 -14 18 -66 21c-12 1 -23 4 -23 21c0 12 5 28 22 28z" />
    <glyph glyph-name="J" unicode="J" horiz-adv-x="316" 
d="M165 675c70 0 105 4 117 4c14 0 17 -10 17 -20c0 -32 -17 -27 -64 -32c-23 -2 -26 -15 -26 -34v-537c0 -81 -38 -154 -88 -202c-10 -10 -74 -66 -123 -66c-48 0 -80 42 -80 77c0 26 18 49 45 49c49 0 53 -66 96 -66c34 0 45 42 50 61c7 25 9 39 9 65v621
c0 35 -24 31 -81 37c-9 1 -22 4 -22 21c0 12 5 27 22 27c4 0 58 -5 124 -5h4z" />
    <glyph glyph-name="K" unicode="K" horiz-adv-x="654" 
d="M280 -6c-4 0 -58 6 -125 6c-66 0 -120 -6 -124 -6c-14 0 -17 12 -17 23c0 47 77 8 94 48c2 5 3 11 3 28v497c0 48 -18 45 -71 50c-13 1 -28 6 -28 24c0 9 7 24 29 24c11 0 44 -4 110 -4h1c66 0 99 4 110 4c23 0 29 -18 29 -26c0 -30 -55 -15 -77 -25
c-14 -7 -15 -23 -15 -33v-4v-213c0 -7 2 -17 13 -17c10 0 17 11 26 21c61 68 177 197 182 205c4 5 8 13 8 21c0 43 -66 13 -66 49c0 13 9 21 23 21c11 0 42 -2 105 -2h6c60 0 90 2 100 2c22 0 28 -12 28 -21c0 -28 -53 -21 -89 -36c-31 -13 -50 -40 -72 -63
c-179 -193 -179 -190 -179 -199c0 -6 3 -10 8 -15c279 -294 267 -284 282 -294c33 -21 52 -10 68 -26c3 -4 6 -10 6 -15c0 -9 -8 -23 -29 -23c-14 0 -19 4 -47 4c-74 1 -73 -4 -98 25c-250 287 -249 291 -261 291h-1c-13 0 -14 -12 -14 -20v-211c0 -39 15 -35 80 -40
c7 -1 22 -3 22 -22c0 -15 -4 -28 -20 -28z" />
    <glyph glyph-name="L" unicode="L" horiz-adv-x="563" 
d="M151 675c72 0 109 3 121 3c16 0 17 -11 17 -27c0 -20 -11 -23 -22 -23c-68 -2 -82 5 -82 -29v-507c0 -17 2 -32 26 -32h191h3c17 0 38 1 55 27c10 15 36 78 42 85c4 5 9 8 15 8s30 -3 30 -23c0 -5 -13 -94 -20 -141c-2 -11 -4 -22 -27 -22c-14 0 -193 6 -417 6h-53
c-13 0 -16 8 -16 16c0 20 12 20 55 29c22 6 23 19 23 32v3v525c0 28 -13 23 -56 24c-13 1 -25 5 -25 24s7 25 19 25c11 0 45 -2 114 -3h7z" />
    <glyph glyph-name="M" unicode="M" horiz-adv-x="998" 
d="M721 -6c-15 0 -19 15 -19 24c0 45 95 2 106 61c1 6 1 13 1 19v213c0 69 -2 157 -3 160c-1 5 -4 6 -7 6c-7 0 -11 -7 -14 -12c-89 -142 -243 -446 -261 -468c-9 -11 -18 -12 -22 -12c-19 0 -28 22 -35 36c-108 222 -252 451 -260 456c-1 1 -2 1 -3 1c-3 0 -4 -3 -4 -5
c-4 -70 -6 -138 -6 -208c0 -42 3 -193 6 -203c10 -33 94 3 94 -45c0 -9 -4 -23 -18 -23c-4 0 -56 6 -120 6s-116 -6 -120 -6c-7 0 -18 4 -18 22c0 30 24 27 74 33c33 4 29 25 32 53c15 178 25 402 25 447c0 13 -6 19 -11 25c-15 16 -38 60 -96 61c-7 1 -20 1 -20 18
c0 21 11 22 18 22h144c14 0 19 -3 25 -13l189 -316l117 -186c2 -4 8 -12 17 -12c7 0 11 4 14 11c271 507 270 507 271 507c4 7 9 9 18 9h145c7 0 15 -1 15 -22c0 -27 -24 -20 -78 -37c-16 -4 -24 -11 -24 -29c4 -388 5 -437 5 -486v-7c0 -25 1 -45 35 -49c44 -4 64 0 64 -29
c0 -13 -8 -22 -20 -22c-5 0 -60 6 -129 6c-68 0 -123 -6 -127 -6z" />
    <glyph glyph-name="N" unicode="N" horiz-adv-x="799" 
d="M791 658c0 -52 -91 15 -91 -82c-2 -90 -4 -181 -4 -271c0 -169 4 -253 4 -281c0 -14 0 -47 -20 -47c-10 0 -21 10 -49 42l-207 236c-202 225 -218 244 -222 244c-2 0 -3 -3 -4 -4c-8 -117 -13 -233 -13 -355v-29c0 -52 3 -62 45 -65c13 0 54 -5 61 -7c4 -2 13 -5 13 -26
c0 -11 -6 -19 -17 -19c-4 0 -57 6 -122 6c-66 0 -118 -6 -123 -6c-12 0 -21 8 -21 20c0 3 2 22 15 26c22 7 69 -1 85 32c5 12 4 9 28 470v3v1c0 9 -1 15 -33 44c-7 7 -34 39 -89 43c-10 0 -18 3 -18 22c0 21 9 26 22 26h123c21 0 29 -6 40 -19l157 -182l91 -102
c181 -196 189 -206 196 -206c6 0 7 5 7 10c1 36 2 71 2 107c0 102 -3 200 -9 298c-2 43 -21 44 -65 49c-7 1 -22 4 -22 21c0 10 7 24 29 24c9 0 38 -3 96 -3c57 0 85 3 94 3c11 0 21 -6 21 -23z" />
    <glyph glyph-name="O" unicode="O" horiz-adv-x="778" 
d="M760 337c0 -210 -164 -361 -359 -361c-98 0 -196 40 -267 108c-72 69 -115 168 -116 269c0 203 168 367 369 367c215 0 373 -179 373 -383zM113 384c0 -173 95 -350 284 -350c114 0 264 75 264 285c0 96 -29 210 -110 281c-49 43 -114 67 -180 67
c-124 0 -258 -85 -258 -283z" />
    <glyph glyph-name="P" unicode="P" horiz-adv-x="572" 
d="M476 498c0 83 -81 150 -223 150c-55 0 -61 -3 -61 -15v-285c0 -11 3 -12 37 -12c147 0 247 65 247 162zM69 683c95 0 166 10 238 10c83 0 147 -17 195 -60c36 -33 58 -81 58 -130v-1c-1 -75 -47 -131 -102 -160c-38 -21 -101 -41 -225 -41h-30c-10 0 -13 -6 -13 -16v-203
c0 -22 6 -33 32 -35c95 -4 108 2 108 -28v-1c0 -12 -3 -24 -19 -24c-5 0 -65 6 -138 6c-75 0 -134 -6 -139 -6c-16 0 -20 13 -20 24c0 28 10 24 62 29c23 3 28 11 28 27v535c0 12 -1 26 -22 26h-36c-10 0 -24 1 -24 26c0 15 7 22 22 22h25z" />
    <glyph glyph-name="Q" unicode="Q" horiz-adv-x="752" 
d="M407 32c135 0 248 114 248 297c0 93 -27 213 -112 286c-46 39 -106 60 -167 60c-128 0 -259 -96 -259 -283c0 -174 112 -360 290 -360zM456 -11c-8 0 -31 -5 -67 -5c-103 0 -198 44 -263 110c-68 69 -106 164 -106 260c0 98 41 197 112 266c67 66 161 104 256 104
c83 0 176 -31 246 -100c71 -70 110 -169 110 -268c0 -138 -76 -269 -182 -341c-1 -1 -3 -2 -3 -5c0 -2 1 -3 3 -4c73 -51 99 -100 149 -133c25 -17 55 -27 85 -27c13 0 17 1 21 1c7 0 12 -4 12 -10c0 -16 -47 -40 -89 -40c-80 0 -131 61 -175 105c-1 1 -87 87 -109 87z" />
    <glyph glyph-name="R" unicode="R" horiz-adv-x="696" 
d="M438 496c0 80 -74 152 -175 152c-13 0 -51 -3 -60 -10c-5 -3 -6 -9 -6 -16c0 -1 1 -2 1 -3v-235c0 -18 7 -18 66 -18c36 0 64 3 92 14c42 17 82 56 82 116zM283 687c180 0 233 -104 233 -174c0 -100 -87 -156 -114 -166c-2 -1 -5 -2 -5 -5c0 -2 1 -3 2 -4
c123 -144 147 -212 185 -257c14 -16 33 -32 54 -32c26 0 30 22 43 22c6 0 10 -5 10 -11c0 -15 -29 -73 -87 -73c-53 0 -94 57 -106 73l-100 142c-89 124 -86 120 -92 124c-5 4 -10 4 -17 4h-73c-9 0 -14 -3 -14 -15v-231v-3c0 -12 1 -29 26 -32c67 -6 91 -2 91 -33
c0 -13 -7 -22 -20 -22c-4 0 -60 6 -129 6s-124 -6 -128 -6c-15 0 -18 15 -18 27c0 22 16 20 62 24c24 3 27 15 27 35v517c0 32 -15 31 -84 43c-10 2 -15 6 -15 16c0 15 4 19 13 19h35c89 0 155 12 221 12z" />
    <glyph glyph-name="S" unicode="S" horiz-adv-x="492" 
d="M32 516c0 89 74 169 179 169c81 0 116 -40 129 -40c15 0 18 40 42 40c9 0 16 -8 16 -19c0 -8 -4 -33 -4 -83c0 -49 4 -73 4 -81c0 -10 -7 -15 -17 -15h-1c-32 1 -21 37 -69 92c-27 30 -66 56 -110 56c-56 0 -97 -42 -97 -94c0 -37 20 -69 51 -91c54 -39 126 -38 190 -65
c72 -31 126 -96 126 -187c0 -119 -96 -215 -219 -215c-58 0 -114 22 -152 55c-10 9 -17 14 -31 14c-10 0 -17 -3 -26 -3c-14 0 -18 9 -18 15c0 12 14 49 23 163c1 11 5 21 22 21c21 0 22 -9 28 -58c7 -70 -4 -45 26 -85c25 -34 70 -66 129 -66c79 0 145 61 145 139
c0 44 -22 84 -58 110c-58 42 -122 39 -189 66c-82 32 -119 97 -119 162z" />
    <glyph glyph-name="T" unicode="T" horiz-adv-x="692" 
d="M494 -6c-5 0 -63 6 -136 6c-72 0 -132 -6 -136 -6c-16 0 -20 12 -20 26c0 25 11 21 73 27c30 3 34 17 34 37v507c0 14 -1 31 -27 31h-149c-27 0 -31 -6 -38 -20c-41 -81 -42 -93 -61 -93c-13 0 -22 11 -22 25v1c0 6 1 9 29 138c3 14 13 15 21 15h583c16 0 18 -10 20 -23
c20 -102 24 -122 24 -128c0 -12 -8 -22 -19 -22c-13 0 -19 12 -23 19c-47 82 -45 88 -76 88h-147c-21 0 -22 -14 -22 -27v-524c0 -26 13 -22 91 -29c16 -2 18 -8 18 -28c0 -10 -4 -20 -17 -20z" />
    <glyph glyph-name="U" unicode="U" horiz-adv-x="756" 
d="M742 663c0 -44 -67 14 -67 -91c0 -3 -1 -7 -1 -10v-227c0 -16 1 -31 1 -47v-32c0 -69 -6 -164 -89 -222c-49 -34 -113 -49 -189 -49c-239 0 -287 132 -299 171c-12 42 -13 81 -13 128c0 25 1 51 1 76v252c0 27 -16 26 -42 29c-8 1 -27 4 -27 24c0 9 4 24 20 24
c10 0 40 -2 101 -3h6c64 0 96 3 107 3c15 0 19 -11 19 -26c0 -27 -21 -20 -62 -26c-29 -4 -32 -21 -32 -35v-313c0 -71 4 -141 61 -192c50 -46 125 -55 180 -55c38 0 142 4 183 91c18 37 19 82 19 111v14c0 21 -1 41 -1 62v272c0 49 -21 48 -67 53c-11 1 -22 4 -22 22
c0 17 9 22 19 22c9 0 35 -3 88 -3s79 3 88 3c18 0 18 -14 18 -26z" />
    <glyph glyph-name="V" unicode="V" horiz-adv-x="830" 
d="M45 689c11 0 45 -3 112 -3c64 0 96 3 106 3c14 0 18 -10 18 -19c0 -25 -11 -24 -56 -31c-9 -1 -27 -5 -27 -26c0 -8 4 -16 6 -20c104 -232 225 -440 232 -448c2 -2 5 -4 9 -4c7 0 10 6 11 8c76 138 143 283 200 436c2 6 6 14 6 22c0 18 -13 27 -22 30
c-25 9 -65 -7 -65 27c0 12 5 25 22 25c10 0 41 -3 102 -3c62 0 92 3 102 3c16 0 22 -10 22 -27c0 -34 -44 -11 -76 -45c-30 -33 -82 -223 -296 -617c-3 -5 -10 -20 -25 -20c-16 0 -23 15 -26 20c-321 561 -308 611 -338 632c-12 9 -46 15 -46 37c0 8 6 20 29 20z" />
    <glyph glyph-name="W" unicode="W" horiz-adv-x="1002" 
d="M38 689c9 0 38 -3 96 -3c56 0 85 3 94 3c18 0 18 -16 18 -25c0 -37 -51 -9 -69 -31c-4 -5 -5 -11 -5 -13c0 -5 1 -9 3 -13c57 -179 74 -223 156 -443c3 -8 9 -18 15 -18c11 0 8 0 107 250c1 4 2 8 2 12v1c0 8 -1 9 -66 197c-13 38 -11 35 -70 38c-10 0 -17 4 -17 22
c0 15 9 23 23 23c10 0 41 -3 103 -3h1c61 0 92 3 102 3c14 0 17 -9 17 -22c0 -20 -10 -19 -43 -23c-16 -2 -31 -6 -31 -25c0 -4 1 -8 2 -13c70 -211 167 -445 180 -463c3 -4 7 -9 12 -9h1c9 0 14 12 16 18c99 209 165 442 165 464c0 25 -23 23 -66 28c-18 2 -20 11 -20 23
s3 22 18 22c10 0 40 -3 101 -3h1c59 0 89 3 99 3s17 -5 17 -23c0 -39 -52 -8 -73 -46c-7 -13 -77 -246 -240 -594c-13 -29 -24 -48 -41 -48c-20 0 -33 28 -42 53c-119 301 -118 303 -123 303c-2 0 -3 -2 -4 -4c-136 -352 -128 -342 -143 -349c-3 -2 -6 -3 -9 -3
c-22 0 -29 33 -39 56c-136 333 -202 566 -210 587c-13 31 -44 9 -58 26c-1 1 -5 6 -5 14c0 11 5 28 25 28z" />
    <glyph glyph-name="X" unicode="X" horiz-adv-x="665" 
d="M156 686c68 0 101 3 112 3c12 0 19 -4 19 -29c0 -33 -70 -1 -70 -43c0 -12 9 -24 12 -30c107 -176 108 -179 112 -179c2 0 3 1 4 2c112 158 128 173 128 201c0 32 -25 30 -55 32c-16 1 -26 7 -26 29c0 8 3 17 16 17c11 0 46 -3 115 -3c70 0 105 3 117 3s18 -7 18 -18
c0 -52 -49 -14 -92 -46c-18 -13 -55 -63 -62 -74c-129 -183 -130 -182 -130 -188s2 -7 172 -276c26 -41 29 -38 86 -44c13 -2 26 -7 26 -28c0 -19 -11 -21 -17 -21c-4 0 -59 6 -129 6c-68 0 -124 -6 -128 -6c-13 0 -19 9 -19 21c0 26 15 25 60 31c19 3 22 13 22 22v2
c0 12 -3 14 -129 215c0 1 -1 3 -3 3c-4 0 -3 0 -137 -193c-5 -7 -11 -16 -11 -26c0 -22 19 -22 62 -27c12 -2 27 -5 27 -26c0 -9 -3 -22 -18 -22c-3 0 -51 6 -109 6c-59 0 -105 -6 -109 -6c-12 0 -15 10 -15 19c0 29 8 27 49 34c38 7 44 21 84 77c147 206 147 204 147 209
c0 6 -3 9 -159 258c-31 49 -41 46 -83 50c-12 1 -25 5 -25 26c0 11 4 22 20 22c11 0 46 -3 115 -3h3z" />
    <glyph glyph-name="Y" unicode="Y" horiz-adv-x="667" 
d="M490 21v-8c0 -9 -3 -19 -16 -19c-5 0 -66 6 -141 6c-77 0 -138 -6 -142 -6c-12 0 -25 6 -25 28c0 27 12 22 78 26c14 1 29 0 29 22v207c0 24 -6 30 -21 55c-184 295 -179 288 -184 295c-19 24 -42 5 -53 26c-2 3 -4 8 -4 14c0 9 5 22 25 22c11 0 44 -3 110 -3s98 3 109 3
c15 0 18 -10 18 -20c0 -30 -14 -26 -65 -30c-8 -1 -26 -3 -26 -23v-2c0 -10 4 -14 142 -253c6 -10 8 -14 14 -14c5 0 7 5 8 6c149 205 175 236 175 264c0 49 -92 1 -92 52c0 8 5 20 21 20c9 0 36 -3 89 -3h3c54 1 80 3 89 3c21 0 28 -12 28 -20c0 -21 -28 -24 -52 -55
l-145 -187c-103 -140 -104 -131 -104 -162v-195c0 -24 13 -20 110 -25c18 -1 22 -10 22 -24z" />
    <glyph glyph-name="Z" unicode="Z" horiz-adv-x="629" 
d="M16 511c0 15 8 60 8 150v37c0 22 12 28 21 28c16 0 22 -15 26 -24c5 -16 27 -27 55 -27h436c20 0 24 -11 24 -18c0 -10 -7 -17 -90 -126l-145 -182c-58 -70 -115 -142 -160 -222c-2 -3 -5 -9 -5 -15c0 -22 23 -23 100 -28c32 -2 65 -3 98 -3h21c73 0 123 2 148 61
c12 29 17 90 24 104c2 3 8 10 19 10c9 0 24 -8 24 -28v-1c0 -42 -7 -62 -12 -104c-7 -72 1 -118 -39 -123h-523h-2c-7 0 -28 1 -28 21c0 8 4 14 8 19c130 184 272 361 422 527c14 16 14 18 14 22s-2 11 -14 11h-323c-50 0 -46 -14 -66 -92c-2 -8 -6 -22 -21 -22
c-8 0 -20 6 -20 25z" />
    <glyph glyph-name="bracketleft" unicode="[" horiz-adv-x="378" 
d="M125 -155c0 -3 1 -5 4 -5c5 0 19 17 59 23c4 1 4 3 4 6v780c0 13 -22 4 -60 28c-1 1 -2 2 -4 2s-3 -2 -3 -5v-829zM104 744c23 0 41 -36 118 -36c66 0 116 29 121 29c7 0 12 -11 12 -16c0 -12 -46 -67 -116 -68c-5 0 -6 -2 -6 -7l1 -773c0 -20 19 0 73 -32
c25 -16 47 -38 47 -48c0 -6 -5 -13 -12 -13c-9 0 -55 35 -131 35c-69 0 -104 -25 -115 -25c-13 0 -16 10 -16 22v414c0 4 -1 7 -4 7c-4 0 -10 -10 -24 -10c-23 0 -29 23 -29 41c0 29 17 36 29 36c13 0 19 -7 23 -7c3 0 4 3 4 7v410c0 13 2 34 25 34z" />
    <glyph glyph-name="backslash" unicode="\" horiz-adv-x="235" 
d="M232 -200c0 -14 -25 -26 -31 -26c-9 0 -11 9 -11 11c-164 708 -187 807 -187 811c0 12 23 22 31 22c11 0 13 -8 15 -15c92 -459 183 -784 183 -803z" />
    <glyph glyph-name="bracketright" unicode="]" horiz-adv-x="378" 
d="M253 -155v829c0 3 -1 5 -3 5s-3 -1 -4 -2c-38 -24 -60 -15 -60 -28v-780c0 -3 0 -5 4 -6c40 -6 54 -23 59 -23c3 0 4 2 4 5zM274 744c23 0 25 -21 25 -34v-410c0 -4 1 -7 4 -7c4 0 10 7 23 7c12 0 29 -7 29 -36c0 -18 -6 -41 -29 -41c-14 0 -20 10 -24 10
c-3 0 -4 -3 -4 -7v-414c0 -12 -3 -22 -16 -22c-11 0 -46 25 -115 25c-76 0 -122 -35 -131 -35c-7 0 -12 7 -12 13c0 10 22 32 47 48c54 32 73 12 73 32l1 773c0 5 -1 7 -6 7c-70 1 -116 56 -116 68c0 5 5 16 12 16c5 0 55 -29 121 -29c77 0 95 36 118 36z" />
    <glyph glyph-name="asciicircum" unicode="^" horiz-adv-x="423" 
d="M73 462c-13 0 -22 10 -22 22c0 8 4 15 7 20c114 193 114 199 136 209c5 2 10 3 15 3c24 0 39 -25 50 -41c109 -175 114 -177 114 -192c0 -14 -11 -23 -24 -23c-21 0 -37 25 -50 42c-80 103 -78 104 -87 104c-8 -1 -4 2 -92 -106c-17 -20 -28 -38 -47 -38z" />
    <glyph glyph-name="underscore" unicode="_" horiz-adv-x="527" 
d="M27 -50v4c0 12 1 25 14 25h446c12 0 14 -13 14 -25v-2c0 -13 0 -28 -14 -28h-446c-14 0 -14 14 -14 26z" />
    <glyph glyph-name="grave" unicode="`" 
d="M8 664c0 22 18 37 37 37h1c28 0 46 -28 55 -42c100 -149 105 -152 105 -165c0 -10 -8 -20 -19 -20h-2c-12 0 -12 3 -152 145c-7 7 -25 23 -25 45z" />
    <glyph glyph-name="a" unicode="a" horiz-adv-x="423" 
d="M29 345c0 36 71 89 154 89c38 0 135 -12 145 -110c1 -12 2 -24 2 -36v-197c0 -39 24 -44 34 -44c31 0 29 33 44 33c4 0 9 -4 9 -13c0 -23 -25 -79 -77 -79c-45 0 -69 40 -71 41c-1 0 -1 1 -2 1c-5 0 -2 -5 -27 -22c-23 -15 -56 -28 -93 -28c-69 0 -114 51 -114 112v1
c0 38 18 70 42 89c54 43 174 47 176 48c7 2 8 7 8 14v36c0 32 -4 57 -24 80c-12 13 -32 27 -58 27c-57 0 -84 -63 -86 -67c-3 -4 -9 -11 -22 -11c-19 0 -40 13 -40 36zM171 35c49 0 78 34 83 41s6 14 6 23v24v41c0 24 -1 29 -10 29c-18 0 -86 -5 -119 -36
c-13 -11 -24 -29 -24 -54c0 -16 5 -41 21 -55c12 -11 30 -13 43 -13z" />
    <glyph glyph-name="b" unicode="b" horiz-adv-x="486" 
d="M142 395c0 -5 2 -6 4 -6c9 0 51 41 136 41c117 0 195 -89 195 -221c0 -63 -22 -166 -133 -208c-42 -16 -90 -20 -112 -20c-48 0 -67 19 -97 19s-35 -21 -50 -21c-14 0 -16 16 -16 30c0 117 3 468 3 585c0 12 -3 16 -12 22c-44 27 -56 32 -56 40s8 11 13 13
c101 40 110 44 114 44c6 -1 14 -4 14 -20c0 -59 -3 -268 -3 -298zM414 192c0 112 -81 185 -167 185c-46 0 -108 -28 -108 -49v-256c0 -2 -1 -5 -1 -7c0 -12 2 -19 14 -24c29 -12 60 -19 92 -19c102 0 170 69 170 170z" />
    <glyph glyph-name="c" unicode="c" horiz-adv-x="381" 
d="M209 -18c-115 0 -192 92 -192 215c0 136 86 231 214 231c72 0 127 -36 127 -74c0 -23 -19 -38 -40 -38c-46 0 -63 60 -121 60c-61 0 -114 -70 -114 -154c0 -93 66 -176 158 -176c78 0 99 54 122 54c9 0 17 -7 17 -17c0 -6 -3 -12 -6 -16c-32 -44 -90 -85 -165 -85z" />
    <glyph glyph-name="d" unicode="d" horiz-adv-x="494" 
d="M238 383c-102 0 -154 -66 -154 -167c0 -124 105 -185 174 -185c38 0 86 17 94 43c2 8 3 15 3 23v224c0 7 0 14 -10 24c-30 28 -70 38 -107 38zM240 423c65 0 103 -15 108 -15s7 4 7 9v168c0 20 -7 20 -60 41c-7 2 -19 6 -19 16c0 6 6 9 9 11c106 52 125 61 129 61
c8 0 12 -6 12 -14c0 -33 -3 -130 -3 -324c0 -99 2 -285 3 -294c1 -15 11 -12 47 -14c1 0 19 0 19 -14c0 -15 -19 -15 -59 -38c-46 -25 -59 -44 -69 -44c-3 0 -8 1 -8 10v33c0 2 -1 3 -2 3c-3 0 -41 -39 -119 -39c-131 0 -218 102 -218 228c0 104 64 216 222 216h1z" />
    <glyph glyph-name="e" unicode="e" horiz-adv-x="409" 
d="M22 206c0 140 85 225 185 225c69 0 135 -45 172 -96c4 -5 8 -13 8 -22v-1c0 -30 -52 -40 -81 -50c-207 -71 -213 -70 -213 -79c0 -12 22 -145 148 -145c44 0 88 19 119 49c5 5 13 14 23 14c9 0 16 -6 16 -15c0 -4 -2 -10 -7 -16c-41 -53 -106 -89 -177 -89
c-82 0 -193 54 -193 225zM290 310c0 12 -49 66 -105 66c-58 0 -96 -54 -96 -143c0 -6 3 -7 5 -7c3 0 185 71 187 72c6 3 9 8 9 12z" />
    <glyph glyph-name="f" unicode="f" horiz-adv-x="292" 
d="M33 -6c-13 0 -15 14 -15 25c0 16 10 14 47 20c15 2 14 12 15 24c2 25 4 93 4 287c0 12 -5 9 -53 10c-6 0 -21 0 -21 18c0 23 8 30 21 30c50 2 51 -2 51 10v1c1 39 6 127 43 192c40 68 122 109 183 109c54 0 72 -31 72 -52c0 -19 -15 -39 -42 -39c-28 0 -52 24 -83 24
c-71 0 -103 -100 -103 -217v-9c0 -13 1 -16 10 -16h98c12 0 22 -4 22 -20v-1c0 -9 -2 -31 -26 -31h-94c-6 0 -9 -1 -9 -8v-287v-3c0 -10 1 -23 20 -24c46 -4 57 2 57 -21c0 -12 -4 -22 -16 -22c-3 0 -42 6 -90 6c-49 0 -88 -6 -91 -6z" />
    <glyph glyph-name="g" unicode="g" horiz-adv-x="440" 
d="M187 399c-50 0 -87 -44 -87 -110c0 -75 41 -142 103 -142c54 0 89 49 89 111c0 70 -41 141 -105 141zM83 -88c0 -60 71 -99 163 -99c103 0 127 44 127 73c0 36 -29 54 -40 59c-45 23 -107 14 -211 25h-3c-7 0 -10 -4 -17 -11c-12 -12 -19 -30 -19 -47zM22 277
c0 84 69 156 162 156c72 0 104 -36 126 -36c19 0 39 13 52 32c5 8 13 23 29 23c19 0 38 -21 38 -41c0 -39 -63 -53 -72 -60c-2 -2 -4 -5 -4 -8c0 -6 11 -25 11 -63c0 -92 -72 -168 -166 -168c-33 0 -45 9 -58 9c-18 0 -45 -29 -45 -51c0 -60 167 -33 245 -56
c63 -18 91 -67 91 -111c0 -55 -43 -137 -208 -137c-164 0 -196 80 -196 126c0 61 51 86 52 87s2 2 2 4c0 6 -37 15 -37 60c0 51 56 93 57 94s1 2 1 3c0 10 -33 13 -61 64c-13 22 -19 47 -19 73z" />
    <glyph glyph-name="h" unicode="h" horiz-adv-x="514" 
d="M293 8v7c0 21 13 17 57 23c20 3 20 11 20 87c0 144 -23 183 -48 210c-20 20 -49 36 -81 36c-43 0 -82 -29 -87 -49c-1 -4 -1 -8 -1 -13c0 -6 0 -240 2 -247c8 -43 75 -11 75 -47c0 -9 -2 -21 -11 -21c-3 0 -43 6 -92 6c-51 0 -91 -6 -94 -6c-12 0 -12 11 -12 20
c0 17 9 16 37 22c23 4 23 20 24 34c3 91 5 183 5 275v4c0 81 -3 239 -4 245c-5 25 -71 16 -71 42c0 12 14 18 16 19c107 62 108 64 115 64h1c6 0 15 -3 15 -19l-1 -308c0 -6 3 -7 5 -7c6 0 50 37 118 37c66 0 111 -38 134 -91c20 -47 25 -78 29 -265c0 -28 12 -29 37 -32
c8 -1 17 -4 17 -18c0 -18 -5 -22 -13 -22c-3 0 -41 6 -91 6c-48 0 -87 -6 -90 -6c-9 0 -11 7 -11 14z" />
    <glyph glyph-name="i" unicode="i" horiz-adv-x="243" 
d="M104 618c0 26 22 47 48 47s48 -21 48 -46c0 -27 -23 -48 -49 -48s-47 20 -47 47zM94 121c0 116 1 174 1 193c0 16 -4 15 -68 41c-5 2 -12 5 -12 13c0 12 16 16 27 21c104 50 105 52 110 52h1c6 0 14 -4 14 -16c0 -8 -6 -105 -6 -227v-33c0 -122 1 -125 23 -128
c33 -5 45 -4 45 -21c0 -8 -1 -22 -12 -22c-3 0 -43 6 -92 6c-50 0 -89 -6 -92 -6c-10 0 -15 7 -15 17c0 23 4 21 49 27c25 4 27 18 27 36v47z" />
    <glyph glyph-name="j" unicode="j" horiz-adv-x="232" 
d="M94 102c0 127 2 191 2 212c0 22 -6 22 -60 55c-4 2 -9 6 -9 12c0 10 1 8 120 59c2 1 4 2 7 2c8 0 10 -7 10 -16c0 -19 -2 -76 -2 -191c0 -180 4 -270 4 -300c0 -19 -5 -29 -15 -44c-13 -18 -90 -122 -149 -122c-21 0 -38 14 -38 34c0 19 15 43 44 43c11 0 20 -3 30 -3
c17 0 57 10 57 79c0 18 -1 72 -1 180zM104 604c0 27 22 47 48 47s48 -20 48 -46s-23 -47 -49 -47s-47 20 -47 46z" />
    <glyph glyph-name="k" unicode="k" horiz-adv-x="454" 
d="M224 12c0 38 47 10 47 40c0 22 -102 146 -103 147c0 1 -2 2 -4 2c-6 0 -27 -25 -28 -29c-1 -3 -1 -7 -1 -11v-103c0 -20 8 -19 46 -24c9 -2 21 -5 21 -21c0 -14 -8 -17 -14 -17c-7 0 -30 4 -77 4s-70 -4 -78 -4c-13 0 -17 11 -17 18c0 34 48 7 51 42v539
c0 13 -3 18 -12 24c-16 11 -45 31 -46 32c-4 4 -4 8 -4 8c0 11 14 15 20 17c95 42 95 42 99 42c10 0 11 -10 11 -17v-472c0 -2 0 -4 3 -4c2 0 5 2 6 4c89 91 99 94 99 118c0 29 -26 28 -26 42v10c0 10 10 13 21 13h58c66 0 99 3 110 3s15 -7 15 -19c0 -26 -20 -16 -58 -26
c-45 -12 -80 -50 -145 -117c-4 -4 -7 -6 -7 -9c0 -5 0 -3 116 -142c26 -31 54 -64 102 -70c7 -1 16 -3 16 -17c0 -12 -4 -21 -16 -21c-3 0 -44 6 -96 6c-51 0 -93 -6 -96 -6c-5 0 -13 2 -13 17v1z" />
    <glyph glyph-name="l" unicode="l" horiz-adv-x="239" 
d="M228 14c0 -12 -2 -20 -12 -20c-3 0 -44 6 -94 6c-48 0 -87 -5 -90 -5c-13 0 -14 11 -14 18v3c0 19 7 18 41 22c26 3 28 18 28 38v509c0 15 -6 15 -23 25c-40 24 -53 28 -53 39v1c0 8 2 6 123 69c3 2 7 4 12 4c12 0 14 -10 14 -19v-633c0 -32 11 -30 51 -37
c12 -2 17 -7 17 -20z" />
    <glyph glyph-name="m" unicode="m" horiz-adv-x="723" 
d="M142 378c5 0 48 44 108 44c65 0 106 -54 108 -55c1 -1 2 -1 4 -1c8 0 4 5 42 27c43 25 78 29 97 29c51 0 112 -27 135 -109c11 -38 11 -77 11 -117v-127c0 -32 10 -29 48 -37c13 -2 14 -11 14 -18c0 -9 -2 -20 -15 -20c-8 0 -34 6 -84 6c-51 0 -77 -6 -85 -6
c-6 0 -16 4 -16 17c0 20 7 18 47 26c20 3 20 13 20 27v139c0 52 -3 113 -41 146c-10 8 -31 22 -62 22c-44 0 -91 -31 -91 -46c0 -1 6 -24 6 -67v-193c0 -3 -1 -5 -1 -8v-1c0 -19 8 -17 49 -22c13 -2 19 -8 19 -19c0 -9 -2 -21 -13 -21c-3 0 -43 6 -93 6s-91 -6 -93 -6
c-12 0 -14 9 -14 22c0 16 12 14 54 21c22 4 26 14 26 38v185c0 33 -4 66 -32 87c-17 13 -42 24 -70 24c-44 0 -70 -28 -76 -39c-2 -5 -4 -11 -4 -26v-241c0 -29 9 -27 53 -34c14 -2 14 -11 14 -21c0 -9 -4 -16 -13 -16c-3 0 -39 6 -85 6c-44 0 -66 -4 -73 -4
c-12 0 -14 10 -14 20c0 31 52 4 56 44v248c0 20 -3 19 -40 47c-3 2 -9 6 -9 12c0 9 0 6 81 58c11 6 13 9 19 9c8 0 9 -7 9 -12v-38c0 -3 1 -6 4 -6z" />
    <glyph glyph-name="n" unicode="n" horiz-adv-x="499" 
d="M141 377c0 -3 2 -4 3 -4h1c4 0 51 59 137 60h2c45 0 132 -20 142 -144c2 -17 2 -34 2 -51s-1 -35 -1 -173v-2c0 -28 13 -26 48 -31c13 -2 14 -11 14 -18c0 -17 -9 -20 -15 -20c-9 0 -34 6 -84 6c-44 0 -80 -6 -82 -6c-12 0 -14 10 -14 20c0 18 12 16 52 23
c13 2 16 7 16 24v155c0 18 -1 78 -13 108c-22 51 -77 60 -100 60c-58 0 -99 -47 -103 -65c-1 -4 -1 -9 -1 -13v-237v-3c0 -11 1 -25 22 -28c42 -7 54 -5 54 -27c0 -10 -4 -18 -13 -18c-3 0 -44 7 -93 7c-48 0 -85 -6 -88 -6c-6 0 -16 4 -16 18c0 20 8 19 39 24
c25 4 26 17 26 34v239c0 24 0 22 -45 56c-3 3 -6 6 -6 10v1c0 8 2 7 95 57c3 2 6 4 10 4c9 0 12 -7 12 -15v-39c0 -2 -1 -5 -1 -6z" />
    <glyph glyph-name="o" unicode="o" horiz-adv-x="467" 
d="M21 204c0 139 104 228 216 228c119 0 209 -94 209 -228c0 -143 -101 -223 -213 -223c-127 0 -212 100 -212 223zM236 30c85 0 142 81 142 170c0 107 -72 185 -148 185c-52 0 -131 -42 -131 -176c0 -104 55 -179 137 -179z" />
    <glyph glyph-name="p" unicode="p" horiz-adv-x="494" 
d="M250 27c81 0 158 68 158 168c0 97 -75 177 -155 177c-13 0 -40 -1 -66 -21c-22 -16 -29 -33 -29 -62v-215c0 -9 0 -19 26 -31c20 -10 43 -16 66 -16zM286 431c111 0 189 -100 189 -216c0 -133 -99 -222 -238 -222c-34 0 -62 6 -64 6c-6 0 -7 -4 -7 -11v-137v-3
c0 -10 1 -24 22 -26c60 -6 80 0 80 -31c0 -8 -3 -15 -12 -15s-38 4 -94 4c-73 0 -128 -8 -133 -8c-6 0 -16 3 -16 20c0 18 12 16 58 26c16 3 22 11 22 28v462v2c0 5 -1 15 -13 20c-65 29 -67 28 -67 35v1c0 6 2 5 107 67c10 5 12 8 17 8c6 0 8 -5 8 -11v-59c0 -3 1 -6 3 -6
c5 0 37 54 115 65c8 1 15 1 23 1z" />
    <glyph glyph-name="q" unicode="q" horiz-adv-x="525" 
d="M259 401c-94 0 -171 -74 -171 -168c0 -102 86 -181 185 -181c37 0 80 14 93 26c8 8 9 18 9 30c0 23 0 47 -3 235c0 15 -3 21 -14 29c-29 19 -64 29 -99 29zM16 213c0 95 70 221 267 221c62 0 100 -13 114 -13c29 0 27 25 38 25c9 0 11 -12 11 -55c0 -9 1 -18 1 -27v-503
c0 -44 16 -45 55 -50c9 -2 14 -6 14 -14c0 -9 -4 -22 -18 -22c-6 0 -22 2 -55 2c-76 0 -131 -12 -135 -12c-11 0 -18 7 -18 18c0 20 18 20 55 27c28 6 29 24 29 40v172c0 4 -2 7 -6 7c-9 0 -49 -38 -129 -38c-121 0 -223 99 -223 222z" />
    <glyph glyph-name="r" unicode="r" horiz-adv-x="358" 
d="M145 377c4 0 77 55 104 65c9 3 18 4 29 4c32 0 78 -16 78 -44v-1c-1 -17 -19 -28 -27 -35c-11 -7 -24 -20 -41 -20c-25 0 -26 25 -59 25c-32 0 -72 -32 -78 -41c-4 -6 -4 -11 -4 -18v-240v-4c0 -11 1 -28 25 -30c60 -5 73 -1 73 -24c0 -8 -1 -20 -14 -20
c-3 0 -47 6 -101 6c-56 0 -99 -6 -102 -6c-10 0 -16 7 -16 17c0 24 18 18 45 25c14 3 18 9 18 24v265c0 20 -8 19 -55 53c-1 1 -3 3 -4 7c0 5 1 3 105 54c3 1 6 3 9 3c11 0 12 -11 12 -20v-40c0 -3 1 -5 3 -5z" />
    <glyph glyph-name="s" unicode="s" horiz-adv-x="338" 
d="M31 309c0 60 54 118 144 118c30 0 45 -5 50 -5c9 0 13 10 25 10s15 -14 16 -19c6 -35 19 -101 19 -105c0 -13 -15 -16 -23 -16c-21 0 -18 29 -32 49c-13 18 -49 39 -82 39c-34 0 -63 -21 -63 -53c0 -14 5 -51 79 -72c51 -14 98 -17 135 -60c26 -30 30 -63 30 -79
c0 -64 -53 -135 -152 -135c-46 0 -109 16 -138 50c-10 11 -12 19 -12 34c0 27 -1 46 -1 60c0 26 3 31 18 31c25 0 9 -34 23 -62c10 -21 56 -59 114 -59c45 0 81 27 81 67c0 66 -88 76 -120 85c-81 23 -111 73 -111 122z" />
    <glyph glyph-name="t" unicode="t" horiz-adv-x="333" 
d="M40 365c-9 0 -20 1 -20 13c0 17 50 35 104 127c3 5 9 18 20 18c6 0 13 -3 13 -16c0 -14 -1 -56 -1 -70c0 -17 8 -20 20 -20h90c3 0 5 -1 8 -1c9 0 26 0 26 -19c0 -6 -4 -23 -9 -29c-4 -4 -9 -5 -18 -5h-117c-7 0 -10 -2 -10 -9c-1 -187 -1 -210 -1 -234
c0 -35 9 -74 51 -74c48 0 87 60 109 60c11 0 18 -9 18 -18c0 -8 -5 -14 -7 -17c-35 -40 -84 -90 -139 -90c-40 0 -94 28 -101 122c-1 11 -1 21 -1 32c0 44 4 199 4 221c0 5 -1 9 -7 9h-32z" />
    <glyph glyph-name="u" unicode="u" horiz-adv-x="505" 
d="M359 33c-5 0 -56 -51 -139 -51c-81 0 -141 53 -153 145c-2 20 -3 40 -3 61c0 32 1 145 1 161c0 9 0 18 -27 28c-18 8 -31 4 -31 21v3c0 7 1 13 11 14c83 5 94 6 104 6c8 0 10 -5 10 -12v-205c0 -30 0 -67 18 -103c16 -31 53 -67 106 -67c38 0 67 18 85 36
c15 17 17 18 17 30v246c0 28 -15 27 -66 36c-10 2 -15 6 -15 16c0 13 6 16 14 17c98 3 110 4 123 4c14 0 15 -10 15 -20v-313c0 -12 6 -9 50 -30c7 -3 8 -6 8 -12c0 -30 -14 -7 -100 -54c-3 -2 -7 -4 -11 -4c-12 0 -14 10 -14 20v23c0 4 -2 4 -3 4z" />
    <glyph glyph-name="v" unicode="v" horiz-adv-x="490" 
d="M298 396v5c0 7 3 14 12 14c8 0 32 -3 80 -3s72 3 80 3c12 0 15 -9 15 -19c0 -33 -42 -8 -55 -30c-3 -6 -3 -8 -6 -20c-52 -189 -133 -349 -145 -362c-4 -5 -11 -9 -19 -9c-15 0 -24 14 -33 31c-128 227 -164 339 -178 357c-20 25 -47 0 -47 39c0 8 4 13 12 13
c10 0 38 -3 95 -3c58 0 86 3 96 3c12 0 14 -9 14 -20c0 -25 -22 -15 -56 -21c-12 -1 -20 -8 -20 -18c0 -13 48 -147 119 -269c1 -1 4 -8 9 -8c3 0 5 4 5 5c76 133 96 259 96 275c0 19 -21 17 -59 20c-5 1 -15 1 -15 17z" />
    <glyph glyph-name="w" unicode="w" horiz-adv-x="752" 
d="M735 415c10 0 15 -7 15 -17c0 -26 -22 -21 -31 -22c-43 -9 -10 -76 -171 -376c-10 -19 -17 -25 -28 -25c-19 0 -30 25 -77 112c-63 122 -62 123 -66 123c-3 0 -3 0 -40 -79c-67 -135 -67 -138 -75 -147c-4 -5 -10 -9 -18 -9c-12 0 -20 9 -29 26
c-107 203 -158 349 -165 361c-16 28 -44 3 -44 36c0 9 3 17 18 17c7 0 30 -3 74 -3h3c43 0 65 3 72 3s12 -5 12 -17c0 -37 -62 -6 -62 -36c0 -5 3 -13 6 -19c33 -87 71 -171 112 -251c1 -2 4 -8 10 -8s10 7 10 8c39 60 90 160 91 175v1c0 8 -34 78 -38 84
c-25 39 -75 8 -75 40c0 14 3 23 16 23c10 0 41 -3 103 -3s93 3 103 3c11 0 14 -8 14 -15v-6c0 -16 -2 -13 -58 -18c-10 -1 -23 -5 -23 -21c0 -19 60 -153 125 -256c5 -9 10 -14 16 -14c8 0 11 6 12 9c72 127 97 249 97 260c0 24 -18 21 -61 24c-10 1 -18 4 -18 20
c0 8 1 17 12 17c7 0 31 -4 78 -4c48 0 72 4 80 4z" />
    <glyph glyph-name="x" unicode="x" horiz-adv-x="443" 
d="M24 415c8 0 33 -3 82 -3c50 0 75 3 83 3c10 0 12 -7 12 -14v-2c0 -4 1 -6 1 -9c0 -12 -7 -11 -36 -14c-7 -1 -16 -4 -16 -14c0 -8 9 -17 14 -24c58 -74 56 -75 60 -75c2 0 3 1 5 3c61 81 70 92 70 98c0 22 -49 2 -49 26c0 17 3 25 13 25c7 0 28 -3 71 -3h3
c44 0 66 3 73 3c10 0 13 -8 13 -15c0 -21 -7 -20 -37 -24c-29 -4 -36 -12 -52 -31c-85 -112 -85 -110 -85 -114c0 -3 0 -2 138 -177c15 -20 17 -18 37 -22c5 -1 10 -2 10 -12c0 -14 -1 -24 -15 -24c-8 0 -32 4 -81 4s-73 -4 -81 -4c-11 0 -12 9 -12 17c0 24 21 17 50 25
c9 3 12 8 12 13c0 4 -3 8 -4 10c-92 114 -91 113 -93 115c-1 0 -2 1 -3 1c-5 0 -4 -1 -78 -101c-13 -17 -14 -19 -14 -25c0 -25 49 -12 59 -25c2 -3 2 -7 2 -10c0 -12 -2 -20 -13 -20c-7 0 -28 4 -72 4c-43 0 -65 -5 -72 -5c-10 0 -10 11 -10 21c0 26 31 14 46 26
c4 3 6 7 9 11c117 153 117 150 117 156c0 3 -2 5 -4 7c-136 169 -121 156 -148 160c-16 2 -18 9 -18 22c0 15 8 17 13 17z" />
    <glyph glyph-name="y" unicode="y" horiz-adv-x="468" 
d="M92 -223c-22 0 -39 16 -39 36c0 40 51 52 88 87c26 24 67 87 67 115c0 22 -29 84 -111 248c-18 34 -53 99 -55 102c-16 21 -38 0 -38 33c0 10 3 17 14 17c7 0 31 -3 78 -3s71 3 79 3c11 0 13 -8 13 -16c0 -22 -7 -20 -37 -23c-7 -1 -15 -3 -15 -14c0 -9 41 -118 109 -246
c0 -2 2 -6 7 -6c6 0 8 8 10 10c52 124 82 202 82 235c0 24 -15 20 -48 23c-9 1 -19 4 -19 19c0 11 7 18 19 18c7 0 31 -3 78 -3h1c46 0 69 3 76 3c12 0 12 -9 12 -20c0 -16 -7 -15 -39 -19c-21 -3 -9 -3 -79 -177c-45 -109 -106 -249 -179 -360c-24 -37 -45 -62 -74 -62z
" />
    <glyph glyph-name="z" unicode="z" horiz-adv-x="361" 
d="M65 454h6c23 0 3 -37 28 -37h218c12 0 22 -4 22 -15c0 -6 -4 -10 -6 -14c-226 -307 -227 -305 -227 -312c0 -10 8 -11 16 -11h145c6 0 12 -1 15 -1c19 0 17 10 27 61c1 3 3 16 17 16c7 0 24 -3 24 -17c0 -4 -13 -63 -13 -143c0 -32 1 -48 1 -54c0 -15 -10 -20 -30 -20
c-14 0 -17 8 -17 18v60c0 14 -8 15 -17 15h-232c-26 0 -30 14 -30 23c0 12 8 22 13 30l204 275c3 3 6 8 6 13c0 11 -10 14 -20 14h-119c-14 0 -13 -6 -22 -45c-1 -3 -3 -16 -17 -16c-5 0 -18 3 -18 13c0 3 10 44 10 102v30c0 12 8 15 16 15z" />
    <glyph glyph-name="braceleft" unicode="{" horiz-adv-x="251" 
d="M45 256c0 7 59 15 59 103c0 77 -27 146 -27 227c0 105 64 134 107 134c10 0 24 -1 24 -5s-42 -14 -60 -65c-5 -15 -7 -30 -7 -46c0 -58 27 -116 27 -193c0 -96 -46 -148 -46 -157c0 -10 43 -48 43 -134c0 -65 -28 -127 -28 -190c0 -92 64 -122 64 -125c0 -2 -3 -3 -16 -3
c-45 0 -112 31 -112 141c0 77 32 141 32 205c0 81 -56 103 -59 106c-1 1 -1 1 -1 2z" />
    <glyph glyph-name="bar" unicode="|" horiz-adv-x="153" 
d="M77 -198h-4c-10 0 -23 1 -23 13v890c0 12 13 13 24 13h2c21 0 27 -3 27 -13v-890c0 -8 -3 -13 -26 -13z" />
    <glyph glyph-name="braceright" unicode="}" horiz-adv-x="251" 
d="M177 586c0 -81 -27 -150 -27 -227c0 -85 54 -97 58 -100c1 -1 1 -1 1 -2c0 -2 -1 -4 -4 -5c-33 -18 -56 -52 -56 -104c0 -64 32 -128 32 -205c0 -110 -67 -141 -112 -141c-13 0 -16 1 -16 3c0 3 64 33 64 125c0 63 -28 125 -28 190c0 87 43 124 43 134c0 4 -3 8 -4 10
c-32 50 -42 103 -42 147c0 77 27 135 27 193c0 89 -67 106 -67 111c0 4 15 5 24 5c43 0 107 -29 107 -134z" />
    <glyph glyph-name="asciitilde" unicode="~" horiz-adv-x="451" 
d="M40 173c-5 0 -16 14 -16 20c0 4 37 66 59 88c14 15 37 31 66 31c59 0 91 -58 150 -58c56 0 89 55 98 60c2 1 4 2 6 2c5 0 24 -8 24 -18c0 -7 -66 -115 -150 -115c-68 0 -90 59 -144 59c-35 0 -60 -24 -86 -64c-1 -2 -3 -5 -7 -5z" />
    <glyph glyph-name="uni00A0" unicode="&#xa0;" horiz-adv-x="250" 
 />
    <glyph glyph-name="exclamdown" unicode="&#xa1;" horiz-adv-x="325" 
d="M132 -16c-9 0 -10 7 -10 25v23c0 214 38 393 44 414c2 6 7 16 17 16c14 0 16 -17 16 -33v-13c5 -223 18 -369 18 -370c0 -13 -5 -18 -13 -22c-68 -40 -67 -40 -72 -40zM160 572c-28 0 -52 23 -52 51c0 27 22 51 51 51c27 0 52 -21 52 -51c0 -31 -24 -51 -51 -51z" />
    <glyph glyph-name="dieresis" unicode="&#xa8;" horiz-adv-x="255" 
d="M147 618c0 26 23 47 48 47c27 0 48 -21 48 -46c0 -27 -22 -48 -48 -48s-48 20 -48 47zM12 618c0 26 23 47 48 47c27 0 48 -21 48 -46c0 -27 -22 -48 -48 -48s-48 20 -48 47z" />
    <glyph glyph-name="copyright" unicode="&#xa9;" horiz-adv-x="772" 
d="M386 27c162 0 305 130 305 306c0 162 -131 304 -306 304c-171 0 -304 -139 -304 -305c0 -172 141 -305 305 -305zM30 332c0 193 155 357 356 357c199 0 356 -163 356 -357c0 -191 -153 -356 -357 -356c-192 0 -355 155 -355 356zM550 384c-30 0 -7 38 -35 74
c-26 32 -71 62 -129 62c-84 0 -169 -69 -169 -188c0 -116 80 -206 178 -206c69 0 140 46 164 124c3 7 9 10 14 10c7 0 11 -4 11 -10c0 0 -14 -83 -15 -98c-1 -11 -4 -18 -18 -18h-18c-14 0 -11 -3 -29 -13c-41 -24 -84 -33 -119 -33c-131 0 -234 106 -234 232
c0 127 105 234 237 234c84 0 113 -33 126 -33c8 0 4 23 24 23c5 0 10 -1 12 -10c12 -82 17 -117 17 -133c0 -10 -1 -17 -17 -17z" />
    <glyph glyph-name="guillemotleft" unicode="&#xab;" horiz-adv-x="365" 
d="M185 334c8 0 17 -12 17 -19c0 -6 0 -5 -97 -114c-1 -2 -3 -4 -3 -7c0 -6 3 -8 95 -115c2 -2 4 -5 4 -8c0 -8 -9 -19 -17 -19c-5 0 -4 0 -156 132c-3 2 -6 5 -6 9c0 5 4 8 7 11c152 130 151 130 156 130zM326 334c8 0 17 -12 17 -19c0 -6 0 -5 -97 -114c-2 -2 -4 -4 -4 -7
c0 -6 4 -8 95 -115c3 -2 4 -5 4 -8c0 -8 -8 -19 -16 -19c-6 0 -4 0 -156 132c-3 2 -6 5 -6 9c0 5 3 8 7 11c152 130 150 130 156 130z" />
    <glyph glyph-name="logicalnot" unicode="&#xac;" horiz-adv-x="701" 
d="M76 231c-15 0 -23 4 -23 22v13c0 21 13 22 24 22h564c7 0 8 -3 8 -9v-218c0 -13 -3 -20 -19 -20h-14c-21 0 -24 12 -24 26v164h-516z" />
    <glyph glyph-name="registered" unicode="&#xae;" horiz-adv-x="519" 
d="M242 676c66 0 86 -39 86 -66c0 -37 -32 -58 -42 -62c28 -32 40 -51 58 -80c6 -11 16 -22 26 -22c8 0 8 8 16 8c2 0 6 -3 6 -7c0 -5 -12 -28 -34 -28c-16 0 -30 12 -40 27l-66 91c-2 4 -2 5 -8 5h-26c-2 0 -2 0 -2 -3v-83c0 -1 -1 -2 -1 -2c0 -17 43 0 43 -22
c0 -7 -4 -11 -10 -11s-18 2 -46 2s-42 -2 -46 -2c-8 0 -10 6 -10 12c0 10 6 9 24 12c8 0 8 4 8 10v186c0 10 -9 9 -28 13c-4 0 -8 3 -8 8c0 6 2 9 8 9h12c32 0 56 5 80 5zM291 604c0 28 -21 53 -57 53c-19 0 -21 -4 -21 -6l1 -1v-86c0 -4 2 -4 20 -4c52 0 57 27 57 44z
M258 372c96 0 175 79 175 172c0 96 -79 175 -175 175c-93 0 -173 -79 -173 -175c0 -93 80 -172 173 -172zM258 335c-115 0 -208 95 -208 209c0 117 93 211 208 211c117 0 211 -94 211 -211c0 -114 -94 -209 -211 -209z" />
    <glyph glyph-name="degree" unicode="&#xb0;" horiz-adv-x="212" 
d="M106 690c53 0 94 -45 94 -97c0 -53 -42 -97 -94 -97c-51 0 -94 43 -94 97s43 97 94 97zM106 653c-31 0 -54 -27 -54 -59c0 -33 24 -60 55 -60c33 0 55 29 55 59c0 31 -24 60 -56 60z" />
    <glyph glyph-name="plusminus" unicode="&#xb1;" horiz-adv-x="701" 
d="M76 280c-15 0 -23 5 -23 22v14c0 20 13 22 24 22h245v193c0 14 8 16 20 16h14c20 0 23 -8 23 -21v-188h250c12 0 20 -4 20 -20v-14c0 -23 -14 -24 -27 -24h-243v-191c0 -16 -8 -18 -21 -18h-14c-19 0 -22 7 -22 19v190h-246zM76 -12c-14 0 -23 3 -23 22v13
c0 21 13 22 24 22h552c12 0 20 -3 20 -19v-14c0 -23 -14 -24 -27 -24h-546z" />
    <glyph glyph-name="acute" unicode="&#xb4;" 
d="M175 701c20 0 37 -15 37 -37c0 -18 -11 -31 -24 -45c-46 -47 -134 -136 -139 -140c-4 -3 -9 -5 -15 -5c-12 0 -19 10 -19 20c0 13 2 13 105 165c9 14 26 42 55 42z" />
    <glyph glyph-name="paragraph" unicode="&#xb6;" horiz-adv-x="750" 
d="M444 315c0 183 53 284 53 292c0 13 -21 46 -31 46c-2 0 -3 -2 -5 -4c-45 -89 -70 -192 -70 -326c0 -127 35 -271 47 -271c6 0 24 24 30 39c-8 44 -24 134 -24 224zM439 665c0 9 -30 14 -43 14c-86 0 -144 -103 -170 -179c-19 -57 -28 -118 -28 -179v-1
c0 -173 65 -302 161 -302c21 0 53 10 53 21c0 9 -47 103 -47 274c0 228 74 340 74 352zM647 633c0 19 23 25 23 41c0 8 -7 20 -28 20c-47 0 -86 -49 -99 -76c-52 -105 -62 -208 -62 -297v-4c1 -192 51 -341 93 -406c19 -28 44 -54 58 -62c16 -9 53 0 53 -26
c0 -16 -18 -27 -38 -27h-4c-11 0 -30 2 -58 29c-25 24 -41 55 -57 85c-31 60 -36 79 -51 132c-29 -25 -51 -53 -149 -59c-7 0 -13 -1 -20 -1c-169 0 -282 140 -282 313c0 242 196 415 364 415c92 0 128 -54 135 -54c9 0 15 26 63 55c21 13 44 22 69 22c46 0 67 -33 67 -60
c0 -37 -33 -61 -54 -61c-12 0 -23 8 -23 21z" />
    <glyph glyph-name="periodcentered" unicode="&#xb7;" 
d="M113 318c32 0 60 -26 60 -59c0 -31 -25 -58 -59 -58c-31 0 -60 24 -60 59s28 58 59 58z" />
    <glyph glyph-name="cedilla" unicode="&#xb8;" horiz-adv-x="199" 
d="M101 -199c-32 0 -74 9 -79 13c-2 2 -3 4 -3 7c0 1 3 24 14 24c1 0 32 -8 51 -8c23 0 38 13 38 33c0 26 -29 48 -71 51c-1 0 -5 0 -5 3c0 2 21 54 32 81h31c-5 -16 -16 -48 -16 -49c0 -2 0 -3 4 -3h2c48 0 84 -26 84 -76c0 -33 -16 -76 -82 -76z" />
    <glyph glyph-name="guillemotright" unicode="&#xbb;" horiz-adv-x="365" 
d="M180 334c6 0 3 0 156 -130c4 -3 6 -6 6 -11c0 -4 -2 -7 -6 -9c-151 -132 -150 -132 -156 -132s-16 9 -16 18c0 6 1 5 96 115c2 3 3 5 3 8c0 2 -1 5 -3 8c-97 109 -98 108 -98 114c0 9 10 19 18 19zM40 334c5 0 9 -5 154 -130c6 -4 8 -8 8 -11s-2 -6 -6 -9
c-151 -132 -150 -132 -156 -132c-8 0 -16 9 -16 18c0 6 2 8 94 115c3 3 5 6 5 9c0 2 -1 4 -3 7l-94 104c-2 3 -4 6 -4 10c0 9 10 19 18 19z" />
    <glyph glyph-name="questiondown" unicode="&#xbf;" horiz-adv-x="380" 
d="M193 572c-32 0 -60 26 -60 59c0 31 26 59 60 59c31 0 60 -25 60 -60s-29 -58 -60 -58zM192 -16c-128 0 -177 88 -177 147c0 125 166 152 166 292c0 9 -1 15 -1 22c0 27 16 36 26 36c11 0 27 -8 27 -55c0 -131 -133 -185 -133 -300c0 -57 38 -104 87 -104
c64 0 58 74 108 74c24 0 42 -20 42 -44c0 -12 -3 -46 -64 -59c-26 -6 -54 -9 -81 -9z" />
    <glyph glyph-name="Agrave" unicode="&#xc0;" horiz-adv-x="821" 
d="M288 862c0 22 18 36 39 36s39 -13 52 -23c153 -111 149 -108 153 -114c2 -4 4 -8 4 -13c0 -12 -10 -19 -20 -19h-1c-8 0 -8 1 -186 86c-10 5 -41 17 -41 47zM137 0c-59 0 -105 -6 -108 -6c-16 0 -20 13 -20 21c0 27 15 26 45 30c32 4 42 14 57 48c48 107 99 214 153 320
c150 285 143 275 155 285c7 5 15 8 24 8c26 0 38 -28 42 -38l144 -332c109 -265 105 -259 111 -268c25 -37 69 -15 75 -39c1 -4 2 -11 2 -13c0 -13 -7 -22 -20 -22c-4 0 -54 6 -115 6c-72 0 -107 -6 -119 -6c-14 0 -20 7 -20 17c0 31 11 28 59 34c5 1 20 2 20 19
c0 18 -36 137 -75 226c-4 9 -9 10 -18 10h-235c-11 0 -17 -1 -23 -12c-49 -91 -87 -196 -87 -216c0 -28 21 -27 63 -32c9 -1 22 -4 22 -24c0 -13 -9 -22 -22 -22c-11 0 -44 6 -110 6zM509 352c5 0 9 1 9 7c0 10 -73 182 -88 206c-3 5 -6 7 -11 7c-9 0 -15 -10 -19 -17
c-62 -116 -102 -193 -102 -199c0 -2 2 -4 6 -4h205z" />
    <glyph glyph-name="Aacute" unicode="&#xc1;" horiz-adv-x="821" 
d="M567 897c21 0 40 -15 40 -36c0 -29 -27 -40 -41 -47c-179 -85 -178 -86 -187 -86c-10 0 -20 8 -20 20c0 10 7 18 19 26l138 100c13 10 31 23 51 23zM137 0c-59 0 -105 -6 -108 -6c-16 0 -20 13 -20 21c0 27 15 26 45 30c32 4 42 14 57 48c48 107 99 214 153 320
c150 285 143 275 155 285c7 5 15 8 24 8c26 0 38 -28 42 -38l144 -332c109 -265 105 -259 111 -268c25 -37 69 -15 75 -39c1 -4 2 -11 2 -13c0 -13 -7 -22 -20 -22c-4 0 -54 6 -115 6c-72 0 -107 -6 -119 -6c-14 0 -20 7 -20 17c0 31 11 28 59 34c5 1 20 2 20 19
c0 18 -36 137 -75 226c-4 9 -9 10 -18 10h-235c-11 0 -17 -1 -23 -12c-49 -91 -87 -196 -87 -216c0 -28 21 -27 63 -32c9 -1 22 -4 22 -24c0 -13 -9 -22 -22 -22c-11 0 -44 6 -110 6zM509 352c5 0 9 1 9 7c0 10 -73 182 -88 206c-3 5 -6 7 -11 7c-9 0 -15 -10 -19 -17
c-62 -116 -102 -193 -102 -199c0 -2 2 -4 6 -4h205z" />
    <glyph glyph-name="Acircumflex" unicode="&#xc2;" horiz-adv-x="821" 
d="M334 728c-12 0 -15 10 -15 14c0 9 0 6 86 113c6 8 19 24 38 24c10 0 16 -4 25 -14c93 -115 94 -113 94 -122c0 -6 -5 -15 -16 -15c-10 0 -20 8 -26 14c-55 46 -65 58 -79 58c-26 0 -83 -72 -107 -72zM137 0c-59 0 -105 -6 -108 -6c-16 0 -20 13 -20 21c0 27 15 26 45 30
c32 4 42 14 57 48c48 107 99 214 153 320c150 285 143 275 155 285c7 5 15 8 24 8c26 0 38 -28 42 -38l144 -332c109 -265 105 -259 111 -268c25 -37 69 -15 75 -39c1 -4 2 -11 2 -13c0 -13 -7 -22 -20 -22c-4 0 -54 6 -115 6c-72 0 -107 -6 -119 -6c-14 0 -20 7 -20 17
c0 31 11 28 59 34c5 1 20 2 20 19c0 18 -36 137 -75 226c-4 9 -9 10 -18 10h-235c-11 0 -17 -1 -23 -12c-49 -91 -87 -196 -87 -216c0 -28 21 -27 63 -32c9 -1 22 -4 22 -24c0 -13 -9 -22 -22 -22c-11 0 -44 6 -110 6zM509 352c5 0 9 1 9 7c0 10 -73 182 -88 206
c-3 5 -6 7 -11 7c-9 0 -15 -10 -19 -17c-62 -116 -102 -193 -102 -199c0 -2 2 -4 6 -4h205z" />
    <glyph glyph-name="Atilde" unicode="&#xc3;" horiz-adv-x="821" 
d="M492 799c46 0 66 46 78 46c4 0 19 -6 19 -13c0 -8 -32 -47 -56 -65c-14 -11 -34 -22 -58 -22c-51 0 -67 45 -107 45c-44 0 -62 -52 -70 -52c-4 0 -13 10 -13 15c0 4 31 52 45 66c12 12 27 23 50 23c45 0 67 -43 112 -43zM137 0c-59 0 -105 -6 -108 -6
c-16 0 -20 13 -20 21c0 27 15 26 45 30c32 4 42 14 57 48c48 107 99 214 153 320c150 285 143 275 155 285c7 5 15 8 24 8c26 0 38 -28 42 -38l144 -332c109 -265 105 -259 111 -268c25 -37 69 -15 75 -39c1 -4 2 -11 2 -13c0 -13 -7 -22 -20 -22c-4 0 -54 6 -115 6
c-72 0 -107 -6 -119 -6c-14 0 -20 7 -20 17c0 31 11 28 59 34c5 1 20 2 20 19c0 18 -36 137 -75 226c-4 9 -9 10 -18 10h-235c-11 0 -17 -1 -23 -12c-49 -91 -87 -196 -87 -216c0 -28 21 -27 63 -32c9 -1 22 -4 22 -24c0 -13 -9 -22 -22 -22c-11 0 -44 6 -110 6zM509 352
c5 0 9 1 9 7c0 10 -73 182 -88 206c-3 5 -6 7 -11 7c-9 0 -15 -10 -19 -17c-62 -116 -102 -193 -102 -199c0 -2 2 -4 6 -4h205z" />
    <glyph glyph-name="Adieresis" unicode="&#xc4;" horiz-adv-x="821" 
d="M460 775c0 26 23 47 48 47c27 0 48 -21 48 -46c0 -27 -22 -48 -48 -48s-48 20 -48 47zM325 775c0 26 23 47 48 47c27 0 48 -21 48 -46c0 -27 -22 -48 -48 -48s-48 20 -48 47zM137 0c-59 0 -105 -6 -108 -6c-16 0 -20 13 -20 21c0 27 15 26 45 30c32 4 42 14 57 48
c48 107 99 214 153 320c150 285 143 275 155 285c7 5 15 8 24 8c26 0 38 -28 42 -38l144 -332c109 -265 105 -259 111 -268c25 -37 69 -15 75 -39c1 -4 2 -11 2 -13c0 -13 -7 -22 -20 -22c-4 0 -54 6 -115 6c-72 0 -107 -6 -119 -6c-14 0 -20 7 -20 17c0 31 11 28 59 34
c5 1 20 2 20 19c0 18 -36 137 -75 226c-4 9 -9 10 -18 10h-235c-11 0 -17 -1 -23 -12c-49 -91 -87 -196 -87 -216c0 -28 21 -27 63 -32c9 -1 22 -4 22 -24c0 -13 -9 -22 -22 -22c-11 0 -44 6 -110 6zM509 352c5 0 9 1 9 7c0 10 -73 182 -88 206c-3 5 -6 7 -11 7
c-9 0 -15 -10 -19 -17c-62 -116 -102 -193 -102 -199c0 -2 2 -4 6 -4h205z" />
    <glyph glyph-name="Aring" unicode="&#xc5;" horiz-adv-x="821" 
d="M443 889c48 0 85 -41 85 -88c0 -49 -38 -88 -85 -88c-46 0 -85 39 -85 88c0 48 39 88 85 88zM443 851c-25 0 -45 -23 -45 -49c0 -27 20 -50 46 -50c27 0 45 25 45 49c0 25 -20 50 -46 50zM137 0c-59 0 -105 -6 -108 -6c-16 0 -20 13 -20 21c0 27 15 26 45 30
c32 4 42 14 57 48c48 107 99 214 153 320c150 285 143 275 155 285c7 5 15 8 24 8c26 0 38 -28 42 -38l144 -332c109 -265 105 -259 111 -268c25 -37 69 -15 75 -39c1 -4 2 -11 2 -13c0 -13 -7 -22 -20 -22c-4 0 -54 6 -115 6c-72 0 -107 -6 -119 -6c-14 0 -20 7 -20 17
c0 31 11 28 59 34c5 1 20 2 20 19c0 18 -36 137 -75 226c-4 9 -9 10 -18 10h-235c-11 0 -17 -1 -23 -12c-49 -91 -87 -196 -87 -216c0 -28 21 -27 63 -32c9 -1 22 -4 22 -24c0 -13 -9 -22 -22 -22c-11 0 -44 6 -110 6zM509 352c5 0 9 1 9 7c0 10 -73 182 -88 206
c-3 5 -6 7 -11 7c-9 0 -15 -10 -19 -17c-62 -116 -102 -193 -102 -199c0 -2 2 -4 6 -4h205z" />
    <glyph glyph-name="AE" unicode="&#xc6;" horiz-adv-x="1010" 
d="M508 352c4 0 9 2 9 9v258c-1 8 -5 12 -10 12c-4 0 -8 -2 -11 -5c-44 -45 -175 -260 -175 -270c0 -4 5 -4 9 -4h178zM308 675c0 5 3 26 14 26c9 0 37 -4 137 -8c51 -2 444 0 453 -2c9 -3 11 -9 12 -16c7 -44 29 -127 29 -131c0 -11 -13 -19 -25 -19c-8 0 -15 3 -19 10
c-7 12 -40 83 -47 94c-6 9 -13 9 -32 9h-191c-31 0 -31 -20 -31 -42v-147c0 -10 1 -22 20 -22h153c36 0 38 13 38 46v18c0 10 3 22 27 22c26 0 27 -18 27 -29v-184c0 -11 -1 -29 -27 -29s-27 13 -27 22v39c0 31 -3 37 -26 37h-138c-24 0 -49 -2 -49 -40v-221
c0 -30 1 -42 32 -46c31 -5 63 -7 94 -7c70 0 130 11 143 21c18 14 53 97 69 107c3 2 7 3 10 3c9 0 18 -8 18 -23c0 -7 -2 -15 -31 -143c-4 -20 -15 -20 -35 -20h-335c-109 0 -123 -6 -137 -6c-11 0 -17 11 -17 21c0 45 78 10 96 50c4 8 4 18 4 29v197c-1 8 -7 9 -11 9h-166
c-53 0 -51 -1 -57 -11c-57 -89 -103 -198 -103 -217c0 -28 26 -26 72 -33c8 -1 18 -4 18 -23c0 -9 -3 -22 -17 -22c-4 0 -57 6 -121 6c-65 0 -116 -6 -120 -6c-11 0 -16 11 -16 21c0 9 3 18 11 21c15 5 49 5 70 23c23 20 40 81 176 301s172 249 172 265c0 18 -26 17 -97 28
c-16 2 -20 12 -20 22z" />
    <glyph glyph-name="Ccedilla" unicode="&#xc7;" horiz-adv-x="700" 
d="M363 -23c-196 9 -344 170 -344 358c0 101 46 196 111 259c68 65 162 102 255 102h1c121 0 183 -53 196 -53c17 0 10 31 29 36c3 0 9 1 11 1c10 0 12 -6 13 -12c0 -1 27 -202 27 -212c0 -7 -3 -17 -20 -17c-26 0 -24 7 -29 47c-4 27 -8 43 -26 66c-41 52 -112 98 -204 98
c-137 0 -268 -111 -268 -296c0 -184 125 -327 281 -327c115 0 224 77 261 197c1 3 3 13 15 13c7 0 16 -3 16 -11c0 0 -22 -156 -25 -163c-4 -15 -17 -16 -22 -16h-1h-28c-24 0 -26 -8 -47 -21c-52 -30 -110 -47 -169 -50c-5 -13 -6 -15 -6 -16c0 -2 1 -3 4 -3h3
c48 0 84 -26 84 -76v-1c0 -32 -17 -75 -82 -75c-32 0 -75 9 -79 13c-3 2 -4 4 -4 7c0 1 3 24 14 24c1 0 33 -8 52 -8c22 0 38 13 38 32c0 27 -29 49 -71 52c-2 0 -5 0 -5 3c0 1 12 32 19 49z" />
    <glyph glyph-name="Egrave" unicode="&#xc8;" horiz-adv-x="578" 
d="M161 862c0 22 18 36 39 36s39 -13 52 -23c153 -111 149 -108 153 -114c2 -4 4 -8 4 -13c0 -12 -10 -19 -20 -19h-1c-8 0 -8 1 -186 86c-10 5 -41 17 -41 47zM436 513c26 0 28 -18 28 -29v-184c0 -11 -2 -29 -28 -29c-25 0 -27 13 -27 22v54c0 20 -12 22 -26 22h-138
c-23 0 -49 -2 -49 -40v-229c0 -18 3 -34 32 -38c31 -5 62 -7 93 -7c32 0 124 6 144 21c18 14 53 97 69 107c4 2 7 3 10 3c7 0 18 -6 18 -23v-1c0 -6 -1 -8 -31 -142c-3 -15 -9 -20 -30 -20h-344c-75 0 -106 -12 -124 -12c-19 0 -24 25 -24 30c0 18 10 18 76 43
c19 7 22 17 22 39v521c0 15 -5 16 -27 20c-39 6 -66 -1 -66 28c0 20 10 22 19 22h460c14 0 19 -6 22 -16c9 -45 29 -128 29 -133c0 -6 -4 -15 -21 -15s-23 11 -28 18c-50 89 -47 93 -78 93h-188c-29 0 -31 -19 -31 -38v-151c0 -10 1 -22 20 -22h153c17 0 38 1 38 33v31
c0 10 3 22 27 22z" />
    <glyph glyph-name="Eacute" unicode="&#xc9;" horiz-adv-x="578" 
d="M370 897c21 0 40 -15 40 -36c0 -29 -27 -40 -41 -47c-179 -85 -178 -86 -187 -86c-10 0 -20 8 -20 20c0 10 7 18 19 26l138 100c13 10 31 23 51 23zM436 513c26 0 28 -18 28 -29v-184c0 -11 -2 -29 -28 -29c-25 0 -27 13 -27 22v54c0 20 -12 22 -26 22h-138
c-23 0 -49 -2 -49 -40v-229c0 -18 3 -34 32 -38c31 -5 62 -7 93 -7c32 0 124 6 144 21c18 14 53 97 69 107c4 2 7 3 10 3c7 0 18 -6 18 -23v-1c0 -6 -1 -8 -31 -142c-3 -15 -9 -20 -30 -20h-344c-75 0 -106 -12 -124 -12c-19 0 -24 25 -24 30c0 18 10 18 76 43
c19 7 22 17 22 39v521c0 15 -5 16 -27 20c-39 6 -66 -1 -66 28c0 20 10 22 19 22h460c14 0 19 -6 22 -16c9 -45 29 -128 29 -133c0 -6 -4 -15 -21 -15s-23 11 -28 18c-50 89 -47 93 -78 93h-188c-29 0 -31 -19 -31 -38v-151c0 -10 1 -22 20 -22h153c17 0 38 1 38 33v31
c0 10 3 22 27 22z" />
    <glyph glyph-name="Ecircumflex" unicode="&#xca;" horiz-adv-x="578" 
d="M179 728c-12 0 -15 10 -15 14c0 9 0 6 86 113c6 8 19 24 38 24c10 0 16 -4 25 -14c93 -115 94 -113 94 -122c0 -6 -5 -15 -16 -15c-10 0 -20 8 -26 14c-55 46 -65 58 -79 58c-26 0 -83 -72 -107 -72zM436 513c26 0 28 -18 28 -29v-184c0 -11 -2 -29 -28 -29
c-25 0 -27 13 -27 22v54c0 20 -12 22 -26 22h-138c-23 0 -49 -2 -49 -40v-229c0 -18 3 -34 32 -38c31 -5 62 -7 93 -7c32 0 124 6 144 21c18 14 53 97 69 107c4 2 7 3 10 3c7 0 18 -6 18 -23v-1c0 -6 -1 -8 -31 -142c-3 -15 -9 -20 -30 -20h-344c-75 0 -106 -12 -124 -12
c-19 0 -24 25 -24 30c0 18 10 18 76 43c19 7 22 17 22 39v521c0 15 -5 16 -27 20c-39 6 -66 -1 -66 28c0 20 10 22 19 22h460c14 0 19 -6 22 -16c9 -45 29 -128 29 -133c0 -6 -4 -15 -21 -15s-23 11 -28 18c-50 89 -47 93 -78 93h-188c-29 0 -31 -19 -31 -38v-151
c0 -10 1 -22 20 -22h153c17 0 38 1 38 33v31c0 10 3 22 27 22z" />
    <glyph glyph-name="Edieresis" unicode="&#xcb;" horiz-adv-x="578" 
d="M305 775c0 26 23 47 48 47c27 0 48 -21 48 -46c0 -27 -22 -48 -48 -48s-48 20 -48 47zM170 775c0 26 23 47 48 47c27 0 48 -21 48 -46c0 -27 -22 -48 -48 -48s-48 20 -48 47zM436 513c26 0 28 -18 28 -29v-184c0 -11 -2 -29 -28 -29c-25 0 -27 13 -27 22v54
c0 20 -12 22 -26 22h-138c-23 0 -49 -2 -49 -40v-229c0 -18 3 -34 32 -38c31 -5 62 -7 93 -7c32 0 124 6 144 21c18 14 53 97 69 107c4 2 7 3 10 3c7 0 18 -6 18 -23v-1c0 -6 -1 -8 -31 -142c-3 -15 -9 -20 -30 -20h-344c-75 0 -106 -12 -124 -12c-19 0 -24 25 -24 30
c0 18 10 18 76 43c19 7 22 17 22 39v521c0 15 -5 16 -27 20c-39 6 -66 -1 -66 28c0 20 10 22 19 22h460c14 0 19 -6 22 -16c9 -45 29 -128 29 -133c0 -6 -4 -15 -21 -15s-23 11 -28 18c-50 89 -47 93 -78 93h-188c-29 0 -31 -19 -31 -38v-151c0 -10 1 -22 20 -22h153
c17 0 38 1 38 33v31c0 10 3 22 27 22z" />
    <glyph glyph-name="Igrave" unicode="&#xcc;" horiz-adv-x="323" 
d="M35 862c0 22 18 36 39 36s39 -13 52 -23c153 -111 149 -108 153 -114c2 -4 4 -8 4 -13c0 -12 -10 -19 -20 -19h-1c-8 0 -8 1 -186 86c-10 5 -41 17 -41 47zM52 680c4 0 53 -5 115 -5c63 0 94 4 104 4c8 0 17 -3 17 -19c0 -30 -12 -27 -63 -32c-14 -1 -16 -9 -16 -17v-540
c0 -10 0 -23 18 -25c56 -4 79 1 79 -23c0 -12 -3 -29 -20 -29c-4 0 -59 6 -127 6s-124 -6 -128 -6c-15 0 -16 12 -17 23c-1 3 -1 6 -1 9c0 21 14 17 84 22c18 1 21 11 21 28v520c0 6 1 11 1 14c0 21 -14 18 -66 21c-12 1 -23 4 -23 21c0 12 5 28 22 28z" />
    <glyph glyph-name="Iacute" unicode="&#xcd;" horiz-adv-x="323" 
d="M243 897c21 0 40 -15 40 -36c0 -29 -27 -40 -41 -47c-179 -85 -178 -86 -187 -86c-10 0 -20 8 -20 20c0 10 7 18 19 26l138 100c13 10 31 23 51 23zM52 680c4 0 53 -5 115 -5c63 0 94 4 104 4c8 0 17 -3 17 -19c0 -30 -12 -27 -63 -32c-14 -1 -16 -9 -16 -17v-540
c0 -10 0 -23 18 -25c56 -4 79 1 79 -23c0 -12 -3 -29 -20 -29c-4 0 -59 6 -127 6s-124 -6 -128 -6c-15 0 -16 12 -17 23c-1 3 -1 6 -1 9c0 21 14 17 84 22c18 1 21 11 21 28v520c0 6 1 11 1 14c0 21 -14 18 -66 21c-12 1 -23 4 -23 21c0 12 5 28 22 28z" />
    <glyph glyph-name="Icircumflex" unicode="&#xce;" horiz-adv-x="323" 
d="M53 728c-12 0 -15 10 -15 14c0 9 0 6 86 113c6 8 19 24 38 24c10 0 16 -4 25 -14c93 -115 94 -113 94 -122c0 -6 -5 -15 -16 -15c-10 0 -20 8 -26 14c-55 46 -65 58 -79 58c-26 0 -83 -72 -107 -72zM52 680c4 0 53 -5 115 -5c63 0 94 4 104 4c8 0 17 -3 17 -19
c0 -30 -12 -27 -63 -32c-14 -1 -16 -9 -16 -17v-540c0 -10 0 -23 18 -25c56 -4 79 1 79 -23c0 -12 -3 -29 -20 -29c-4 0 -59 6 -127 6s-124 -6 -128 -6c-15 0 -16 12 -17 23c-1 3 -1 6 -1 9c0 21 14 17 84 22c18 1 21 11 21 28v520c0 6 1 11 1 14c0 21 -14 18 -66 21
c-12 1 -23 4 -23 21c0 12 5 28 22 28z" />
    <glyph glyph-name="Idieresis" unicode="&#xcf;" horiz-adv-x="323" 
d="M179 775c0 26 23 47 48 47c27 0 48 -21 48 -46c0 -27 -22 -48 -48 -48s-48 20 -48 47zM44 775c0 26 23 47 48 47c27 0 48 -21 48 -46c0 -27 -22 -48 -48 -48s-48 20 -48 47zM52 680c4 0 53 -5 115 -5c63 0 94 4 104 4c8 0 17 -3 17 -19c0 -30 -12 -27 -63 -32
c-14 -1 -16 -9 -16 -17v-540c0 -10 0 -23 18 -25c56 -4 79 1 79 -23c0 -12 -3 -29 -20 -29c-4 0 -59 6 -127 6s-124 -6 -128 -6c-15 0 -16 12 -17 23c-1 3 -1 6 -1 9c0 21 14 17 84 22c18 1 21 11 21 28v520c0 6 1 11 1 14c0 21 -14 18 -66 21c-12 1 -23 4 -23 21
c0 12 5 28 22 28z" />
    <glyph glyph-name="Ntilde" unicode="&#xd1;" horiz-adv-x="799" 
d="M455 789c46 0 66 46 78 46c4 0 19 -6 19 -13c0 -8 -32 -47 -56 -65c-14 -11 -34 -22 -58 -22c-51 0 -67 45 -107 45c-44 0 -62 -52 -70 -52c-4 0 -13 10 -13 15c0 4 31 52 45 66c12 12 27 23 50 23c45 0 67 -43 112 -43zM791 658c0 -52 -91 15 -91 -82
c-2 -90 -4 -181 -4 -271c0 -169 4 -253 4 -281c0 -14 0 -47 -20 -47c-10 0 -21 10 -49 42l-207 236c-202 225 -218 244 -222 244c-2 0 -3 -3 -4 -4c-8 -117 -13 -233 -13 -355v-29c0 -52 3 -62 45 -65c13 0 54 -5 61 -7c4 -2 13 -5 13 -26c0 -11 -6 -19 -17 -19
c-4 0 -57 6 -122 6c-66 0 -118 -6 -123 -6c-12 0 -21 8 -21 20c0 3 2 22 15 26c22 7 69 -1 85 32c5 12 4 9 28 470v3v1c0 9 -1 15 -33 44c-7 7 -34 39 -89 43c-10 0 -18 3 -18 22c0 21 9 26 22 26h123c21 0 29 -6 40 -19l157 -182l91 -102c181 -196 189 -206 196 -206
c6 0 7 5 7 10c1 36 2 71 2 107c0 102 -3 200 -9 298c-2 43 -21 44 -65 49c-7 1 -22 4 -22 21c0 10 7 24 29 24c9 0 38 -3 96 -3c57 0 85 3 94 3c11 0 21 -6 21 -23z" />
    <glyph glyph-name="Ograve" unicode="&#xd2;" horiz-adv-x="778" 
d="M265 863c0 22 18 36 39 36s39 -13 52 -23c153 -111 149 -108 153 -114c2 -4 4 -8 4 -13c0 -12 -10 -19 -20 -19h-1c-8 0 -8 1 -186 86c-10 5 -41 17 -41 47zM760 337c0 -210 -164 -361 -359 -361c-98 0 -196 40 -267 108c-72 69 -115 168 -116 269c0 203 168 367 369 367
c215 0 373 -179 373 -383zM113 384c0 -173 95 -350 284 -350c114 0 264 75 264 285c0 96 -29 210 -110 281c-49 43 -114 67 -180 67c-124 0 -258 -85 -258 -283z" />
    <glyph glyph-name="Oacute" unicode="&#xd3;" horiz-adv-x="778" 
d="M473 899c21 0 40 -15 40 -36c0 -29 -27 -40 -41 -47c-179 -85 -178 -86 -187 -86c-10 0 -20 8 -20 20c0 10 7 18 19 26l138 100c13 10 31 23 51 23zM760 337c0 -210 -164 -361 -359 -361c-98 0 -196 40 -267 108c-72 69 -115 168 -116 269c0 203 168 367 369 367
c215 0 373 -179 373 -383zM113 384c0 -173 95 -350 284 -350c114 0 264 75 264 285c0 96 -29 210 -110 281c-49 43 -114 67 -180 67c-124 0 -258 -85 -258 -283z" />
    <glyph glyph-name="Ocircumflex" unicode="&#xd4;" horiz-adv-x="778" 
d="M283 730c-12 0 -15 10 -15 14c0 9 0 6 86 113c6 8 19 24 38 24c10 0 16 -4 25 -14c93 -115 94 -113 94 -122c0 -6 -5 -15 -16 -15c-10 0 -20 8 -26 14c-55 46 -65 58 -79 58c-26 0 -83 -72 -107 -72zM760 337c0 -210 -164 -361 -359 -361c-98 0 -196 40 -267 108
c-72 69 -115 168 -116 269c0 203 168 367 369 367c215 0 373 -179 373 -383zM113 384c0 -173 95 -350 284 -350c114 0 264 75 264 285c0 96 -29 210 -110 281c-49 43 -114 67 -180 67c-124 0 -258 -85 -258 -283z" />
    <glyph glyph-name="Otilde" unicode="&#xd5;" horiz-adv-x="778" 
d="M444 801c46 0 66 46 78 46c4 0 19 -6 19 -13c0 -8 -32 -47 -56 -65c-14 -11 -34 -22 -58 -22c-51 0 -67 45 -107 45c-44 0 -62 -52 -70 -52c-4 0 -13 10 -13 15c0 4 31 52 45 66c12 12 27 23 50 23c45 0 67 -43 112 -43zM760 337c0 -210 -164 -361 -359 -361
c-98 0 -196 40 -267 108c-72 69 -115 168 -116 269c0 203 168 367 369 367c215 0 373 -179 373 -383zM113 384c0 -173 95 -350 284 -350c114 0 264 75 264 285c0 96 -29 210 -110 281c-49 43 -114 67 -180 67c-124 0 -258 -85 -258 -283z" />
    <glyph glyph-name="Odieresis" unicode="&#xd6;" horiz-adv-x="778" 
d="M409 787c0 26 23 47 48 47c27 0 48 -21 48 -46c0 -27 -22 -48 -48 -48s-48 20 -48 47zM274 787c0 26 23 47 48 47c27 0 48 -21 48 -46c0 -27 -22 -48 -48 -48s-48 20 -48 47zM760 337c0 -210 -164 -361 -359 -361c-98 0 -196 40 -267 108c-72 69 -115 168 -116 269
c0 203 168 367 369 367c215 0 373 -179 373 -383zM113 384c0 -173 95 -350 284 -350c114 0 264 75 264 285c0 96 -29 210 -110 281c-49 43 -114 67 -180 67c-124 0 -258 -85 -258 -283z" />
    <glyph glyph-name="multiply" unicode="&#xd7;" horiz-adv-x="552" 
d="M54 69c0 7 4 12 9 17l174 173c-172 173 -184 180 -184 191c0 8 20 32 34 32h1c11 0 12 -4 189 -182c186 185 180 183 190 184h1c8 0 32 -21 32 -34v-1c0 -11 -4 -12 -182 -190c182 -182 183 -179 183 -190c0 -10 -21 -33 -33 -33c-7 0 -12 4 -17 9l-174 174
c-182 -182 -179 -183 -190 -183c-10 0 -33 21 -33 33z" />
    <glyph glyph-name="Oslash" unicode="&#xd8;" horiz-adv-x="778" 
d="M760 337c0 -210 -164 -361 -359 -361c-60 0 -119 15 -173 42c-31 -57 -29 -54 -32 -57c-3 -2 -8 -5 -19 -5c-19 0 -34 2 -34 13v1c0 3 1 2 40 74c-101 69 -164 186 -165 309c0 203 168 367 369 367c51 0 102 -11 149 -31c30 56 27 56 45 56c30 0 36 -10 36 -16
s-6 -14 -34 -65c110 -69 177 -195 177 -327zM113 384c0 -91 27 -204 104 -278l288 527c-41 22 -87 34 -134 34c-124 0 -258 -85 -258 -283zM397 34c114 0 264 75 264 285c0 100 -31 212 -112 283l-291 -529c38 -23 84 -39 139 -39z" />
    <glyph glyph-name="Ugrave" unicode="&#xd9;" horiz-adv-x="756" 
d="M255 862c0 22 18 36 39 36s39 -13 52 -23c153 -111 149 -108 153 -114c2 -4 4 -8 4 -13c0 -12 -10 -19 -20 -19h-1c-8 0 -8 1 -186 86c-10 5 -41 17 -41 47zM742 663c0 -44 -67 14 -67 -91c0 -3 -1 -7 -1 -10v-227c0 -16 1 -31 1 -47v-32c0 -69 -6 -164 -89 -222
c-49 -34 -113 -49 -189 -49c-239 0 -287 132 -299 171c-12 42 -13 81 -13 128c0 25 1 51 1 76v252c0 27 -16 26 -42 29c-8 1 -27 4 -27 24c0 9 4 24 20 24c10 0 40 -2 101 -3h6c64 0 96 3 107 3c15 0 19 -11 19 -26c0 -27 -21 -20 -62 -26c-29 -4 -32 -21 -32 -35v-313
c0 -71 4 -141 61 -192c50 -46 125 -55 180 -55c38 0 142 4 183 91c18 37 19 82 19 111v14c0 21 -1 41 -1 62v272c0 49 -21 48 -67 53c-11 1 -22 4 -22 22c0 17 9 22 19 22c9 0 35 -3 88 -3s79 3 88 3c18 0 18 -14 18 -26z" />
    <glyph glyph-name="Uacute" unicode="&#xda;" horiz-adv-x="756" 
d="M524 897c21 0 40 -15 40 -36c0 -29 -27 -40 -41 -47c-179 -85 -178 -86 -187 -86c-10 0 -20 8 -20 20c0 10 7 18 19 26l138 100c13 10 31 23 51 23zM742 663c0 -44 -67 14 -67 -91c0 -3 -1 -7 -1 -10v-227c0 -16 1 -31 1 -47v-32c0 -69 -6 -164 -89 -222
c-49 -34 -113 -49 -189 -49c-239 0 -287 132 -299 171c-12 42 -13 81 -13 128c0 25 1 51 1 76v252c0 27 -16 26 -42 29c-8 1 -27 4 -27 24c0 9 4 24 20 24c10 0 40 -2 101 -3h6c64 0 96 3 107 3c15 0 19 -11 19 -26c0 -27 -21 -20 -62 -26c-29 -4 -32 -21 -32 -35v-313
c0 -71 4 -141 61 -192c50 -46 125 -55 180 -55c38 0 142 4 183 91c18 37 19 82 19 111v14c0 21 -1 41 -1 62v272c0 49 -21 48 -67 53c-11 1 -22 4 -22 22c0 17 9 22 19 22c9 0 35 -3 88 -3s79 3 88 3c18 0 18 -14 18 -26z" />
    <glyph glyph-name="Ucircumflex" unicode="&#xdb;" horiz-adv-x="756" 
d="M273 728c-12 0 -15 10 -15 14c0 9 0 6 86 113c6 8 19 24 38 24c10 0 16 -4 25 -14c93 -115 94 -113 94 -122c0 -6 -5 -15 -16 -15c-10 0 -20 8 -26 14c-55 46 -65 58 -79 58c-26 0 -83 -72 -107 -72zM742 663c0 -44 -67 14 -67 -91c0 -3 -1 -7 -1 -10v-227
c0 -16 1 -31 1 -47v-32c0 -69 -6 -164 -89 -222c-49 -34 -113 -49 -189 -49c-239 0 -287 132 -299 171c-12 42 -13 81 -13 128c0 25 1 51 1 76v252c0 27 -16 26 -42 29c-8 1 -27 4 -27 24c0 9 4 24 20 24c10 0 40 -2 101 -3h6c64 0 96 3 107 3c15 0 19 -11 19 -26
c0 -27 -21 -20 -62 -26c-29 -4 -32 -21 -32 -35v-313c0 -71 4 -141 61 -192c50 -46 125 -55 180 -55c38 0 142 4 183 91c18 37 19 82 19 111v14c0 21 -1 41 -1 62v272c0 49 -21 48 -67 53c-11 1 -22 4 -22 22c0 17 9 22 19 22c9 0 35 -3 88 -3s79 3 88 3c18 0 18 -14 18 -26
z" />
    <glyph glyph-name="Udieresis" unicode="&#xdc;" horiz-adv-x="756" 
d="M423 775c0 26 23 47 48 47c27 0 48 -21 48 -46c0 -27 -22 -48 -48 -48s-48 20 -48 47zM288 775c0 26 23 47 48 47c27 0 48 -21 48 -46c0 -27 -22 -48 -48 -48s-48 20 -48 47zM742 663c0 -44 -67 14 -67 -91c0 -3 -1 -7 -1 -10v-227c0 -16 1 -31 1 -47v-32
c0 -69 -6 -164 -89 -222c-49 -34 -113 -49 -189 -49c-239 0 -287 132 -299 171c-12 42 -13 81 -13 128c0 25 1 51 1 76v252c0 27 -16 26 -42 29c-8 1 -27 4 -27 24c0 9 4 24 20 24c10 0 40 -2 101 -3h6c64 0 96 3 107 3c15 0 19 -11 19 -26c0 -27 -21 -20 -62 -26
c-29 -4 -32 -21 -32 -35v-313c0 -71 4 -141 61 -192c50 -46 125 -55 180 -55c38 0 142 4 183 91c18 37 19 82 19 111v14c0 21 -1 41 -1 62v272c0 49 -21 48 -67 53c-11 1 -22 4 -22 22c0 17 9 22 19 22c9 0 35 -3 88 -3s79 3 88 3c18 0 18 -14 18 -26z" />
    <glyph glyph-name="Yacute" unicode="&#xdd;" horiz-adv-x="667" 
d="M467 897c21 0 40 -15 40 -36c0 -29 -27 -40 -41 -47c-179 -85 -178 -86 -187 -86c-10 0 -20 8 -20 20c0 10 7 18 19 26l138 100c13 10 31 23 51 23zM490 21v-8c0 -9 -3 -19 -16 -19c-5 0 -66 6 -141 6c-77 0 -138 -6 -142 -6c-12 0 -25 6 -25 28c0 27 12 22 78 26
c14 1 29 0 29 22v207c0 24 -6 30 -21 55c-184 295 -179 288 -184 295c-19 24 -42 5 -53 26c-2 3 -4 8 -4 14c0 9 5 22 25 22c11 0 44 -3 110 -3s98 3 109 3c15 0 18 -10 18 -20c0 -30 -14 -26 -65 -30c-8 -1 -26 -3 -26 -23v-2c0 -10 4 -14 142 -253c6 -10 8 -14 14 -14
c5 0 7 5 8 6c149 205 175 236 175 264c0 49 -92 1 -92 52c0 8 5 20 21 20c9 0 36 -3 89 -3h3c54 1 80 3 89 3c21 0 28 -12 28 -20c0 -21 -28 -24 -52 -55l-145 -187c-103 -140 -104 -131 -104 -162v-195c0 -24 13 -20 110 -25c18 -1 22 -10 22 -24z" />
    <glyph glyph-name="germandbls" unicode="&#xdf;" horiz-adv-x="529" 
d="M30 -6c-7 0 -12 5 -12 19c0 23 9 21 47 26c19 2 15 22 17 62c1 25 2 200 2 250c0 11 -7 8 -53 9h-1c-6 0 -21 1 -21 19c0 5 2 24 14 28c9 3 52 1 56 3c3 1 3 4 3 7v2c1 102 27 199 88 251c41 34 94 49 134 49c67 0 117 -44 117 -112c0 -105 -112 -134 -112 -208
c0 -61 67 -84 150 -174c25 -27 62 -72 62 -128c0 -69 -56 -116 -124 -116c-74 0 -121 37 -133 57c-5 9 -6 16 -6 27v66c0 17 0 15 2 18c1 1 6 7 15 7c25 0 5 -31 24 -65c8 -13 46 -54 91 -54c37 0 70 25 70 63c0 59 -69 86 -168 188c-24 24 -40 48 -40 80
c0 73 88 122 88 207c0 46 -30 84 -75 84c-21 0 -90 -11 -107 -151c-5 -39 -5 -78 -5 -118v-10c0 -249 -1 -281 -1 -312c0 -15 1 -30 32 -33c28 -2 34 -1 34 -18c0 -11 0 -23 -11 -23c-2 0 -41 6 -88 6c-48 0 -86 -6 -89 -6z" />
    <glyph glyph-name="agrave" unicode="&#xe0;" horiz-adv-x="423" 
d="M45 664c0 22 18 37 37 37h1c28 0 46 -28 55 -42c100 -149 105 -152 105 -165c0 -10 -8 -20 -19 -20h-2c-12 0 -12 3 -152 145c-7 7 -25 23 -25 45zM29 345c0 36 71 89 154 89c38 0 135 -12 145 -110c1 -12 2 -24 2 -36v-197c0 -39 24 -44 34 -44c31 0 29 33 44 33
c4 0 9 -4 9 -13c0 -23 -25 -79 -77 -79c-45 0 -69 40 -71 41c-1 0 -1 1 -2 1c-5 0 -2 -5 -27 -22c-23 -15 -56 -28 -93 -28c-69 0 -114 51 -114 112v1c0 38 18 70 42 89c54 43 174 47 176 48c7 2 8 7 8 14v36c0 32 -4 57 -24 80c-12 13 -32 27 -58 27c-57 0 -84 -63 -86 -67
c-3 -4 -9 -11 -22 -11c-19 0 -40 13 -40 36zM171 35c49 0 78 34 83 41s6 14 6 23v24v41c0 24 -1 29 -10 29c-18 0 -86 -5 -119 -36c-13 -11 -24 -29 -24 -54c0 -16 5 -41 21 -55c12 -11 30 -13 43 -13z" />
    <glyph glyph-name="aacute" unicode="&#xe1;" horiz-adv-x="423" 
d="M285 701c20 0 37 -15 37 -37c0 -18 -11 -31 -24 -45c-46 -47 -134 -136 -139 -140c-4 -3 -9 -5 -15 -5c-12 0 -19 10 -19 20c0 13 2 13 105 165c9 14 26 42 55 42zM29 345c0 36 71 89 154 89c38 0 135 -12 145 -110c1 -12 2 -24 2 -36v-197c0 -39 24 -44 34 -44
c31 0 29 33 44 33c4 0 9 -4 9 -13c0 -23 -25 -79 -77 -79c-45 0 -69 40 -71 41c-1 0 -1 1 -2 1c-5 0 -2 -5 -27 -22c-23 -15 -56 -28 -93 -28c-69 0 -114 51 -114 112v1c0 38 18 70 42 89c54 43 174 47 176 48c7 2 8 7 8 14v36c0 32 -4 57 -24 80c-12 13 -32 27 -58 27
c-57 0 -84 -63 -86 -67c-3 -4 -9 -11 -22 -11c-19 0 -40 13 -40 36zM171 35c49 0 78 34 83 41s6 14 6 23v24v41c0 24 -1 29 -10 29c-18 0 -86 -5 -119 -36c-13 -11 -24 -29 -24 -54c0 -16 5 -41 21 -55c12 -11 30 -13 43 -13z" />
    <glyph glyph-name="acircumflex" unicode="&#xe2;" horiz-adv-x="423" 
d="M107 474c-5 0 -15 3 -15 15c0 7 44 137 62 177c3 7 12 29 29 29c27 0 43 -61 89 -194c1 -3 3 -7 3 -11c0 -13 -11 -16 -15 -16c-11 0 -17 8 -26 23c-40 70 -41 75 -50 75c-11 0 -13 -8 -53 -77c-8 -13 -15 -21 -24 -21zM29 345c0 36 71 89 154 89c38 0 135 -12 145 -110
c1 -12 2 -24 2 -36v-197c0 -39 24 -44 34 -44c31 0 29 33 44 33c4 0 9 -4 9 -13c0 -23 -25 -79 -77 -79c-45 0 -69 40 -71 41c-1 0 -1 1 -2 1c-5 0 -2 -5 -27 -22c-23 -15 -56 -28 -93 -28c-69 0 -114 51 -114 112v1c0 38 18 70 42 89c54 43 174 47 176 48c7 2 8 7 8 14v36
c0 32 -4 57 -24 80c-12 13 -32 27 -58 27c-57 0 -84 -63 -86 -67c-3 -4 -9 -11 -22 -11c-19 0 -40 13 -40 36zM171 35c49 0 78 34 83 41s6 14 6 23v24v41c0 24 -1 29 -10 29c-18 0 -86 -5 -119 -36c-13 -11 -24 -29 -24 -54c0 -16 5 -41 21 -55c12 -11 30 -13 43 -13z" />
    <glyph glyph-name="atilde" unicode="&#xe3;" horiz-adv-x="423" 
d="M239 622c46 0 66 46 78 46c4 0 19 -6 19 -13c0 -8 -32 -47 -56 -65c-14 -11 -34 -22 -58 -22c-51 0 -67 45 -107 45c-44 0 -62 -52 -70 -52c-4 0 -13 10 -13 15c0 4 31 52 45 66c12 12 27 23 50 23c45 0 67 -43 112 -43zM29 345c0 36 71 89 154 89c38 0 135 -12 145 -110
c1 -12 2 -24 2 -36v-197c0 -39 24 -44 34 -44c31 0 29 33 44 33c4 0 9 -4 9 -13c0 -23 -25 -79 -77 -79c-45 0 -69 40 -71 41c-1 0 -1 1 -2 1c-5 0 -2 -5 -27 -22c-23 -15 -56 -28 -93 -28c-69 0 -114 51 -114 112v1c0 38 18 70 42 89c54 43 174 47 176 48c7 2 8 7 8 14v36
c0 32 -4 57 -24 80c-12 13 -32 27 -58 27c-57 0 -84 -63 -86 -67c-3 -4 -9 -11 -22 -11c-19 0 -40 13 -40 36zM171 35c49 0 78 34 83 41s6 14 6 23v24v41c0 24 -1 29 -10 29c-18 0 -86 -5 -119 -36c-13 -11 -24 -29 -24 -54c0 -16 5 -41 21 -55c12 -11 30 -13 43 -13z" />
    <glyph glyph-name="adieresis" unicode="&#xe4;" horiz-adv-x="423" 
d="M203 618c0 26 23 47 48 47c27 0 48 -21 48 -46c0 -27 -22 -48 -48 -48s-48 20 -48 47zM68 618c0 26 23 47 48 47c27 0 48 -21 48 -46c0 -27 -22 -48 -48 -48s-48 20 -48 47zM29 345c0 36 71 89 154 89c38 0 135 -12 145 -110c1 -12 2 -24 2 -36v-197c0 -39 24 -44 34 -44
c31 0 29 33 44 33c4 0 9 -4 9 -13c0 -23 -25 -79 -77 -79c-45 0 -69 40 -71 41c-1 0 -1 1 -2 1c-5 0 -2 -5 -27 -22c-23 -15 -56 -28 -93 -28c-69 0 -114 51 -114 112v1c0 38 18 70 42 89c54 43 174 47 176 48c7 2 8 7 8 14v36c0 32 -4 57 -24 80c-12 13 -32 27 -58 27
c-57 0 -84 -63 -86 -67c-3 -4 -9 -11 -22 -11c-19 0 -40 13 -40 36zM171 35c49 0 78 34 83 41s6 14 6 23v24v41c0 24 -1 29 -10 29c-18 0 -86 -5 -119 -36c-13 -11 -24 -29 -24 -54c0 -16 5 -41 21 -55c12 -11 30 -13 43 -13z" />
    <glyph glyph-name="aring" unicode="&#xe5;" horiz-adv-x="423" 
d="M183 650c48 0 85 -41 85 -88c0 -49 -38 -88 -85 -88c-46 0 -85 39 -85 88c0 48 39 88 85 88zM183 612c-25 0 -45 -23 -45 -49c0 -27 20 -50 46 -50c27 0 45 25 45 49c0 25 -20 50 -46 50zM29 345c0 36 71 89 154 89c38 0 135 -12 145 -110c1 -12 2 -24 2 -36v-197
c0 -39 24 -44 34 -44c31 0 29 33 44 33c4 0 9 -4 9 -13c0 -23 -25 -79 -77 -79c-45 0 -69 40 -71 41c-1 0 -1 1 -2 1c-5 0 -2 -5 -27 -22c-23 -15 -56 -28 -93 -28c-69 0 -114 51 -114 112v1c0 38 18 70 42 89c54 43 174 47 176 48c7 2 8 7 8 14v36c0 32 -4 57 -24 80
c-12 13 -32 27 -58 27c-57 0 -84 -63 -86 -67c-3 -4 -9 -11 -22 -11c-19 0 -40 13 -40 36zM171 35c49 0 78 34 83 41s6 14 6 23v24v41c0 24 -1 29 -10 29c-18 0 -86 -5 -119 -36c-13 -11 -24 -29 -24 -54c0 -16 5 -41 21 -55c12 -11 30 -13 43 -13z" />
    <glyph glyph-name="ae" unicode="&#xe6;" horiz-adv-x="645" 
d="M424 376c-57 0 -96 -55 -96 -143c0 -5 2 -7 5 -7s184 70 188 72c6 3 8 8 8 12c0 14 -50 66 -105 66zM106 101c0 -28 12 -69 63 -69c23 0 49 10 66 24c21 17 24 20 24 59v29c0 47 -1 47 -10 47h-2c-58 -4 -141 -18 -141 -90zM447 432c94 0 180 -89 180 -119v-1
c-1 -30 -53 -40 -82 -50c-206 -71 -212 -70 -212 -79c0 -12 22 -145 148 -145c44 0 87 18 119 49c4 5 12 14 23 14c9 0 15 -6 15 -14c0 -5 -2 -11 -6 -17c-45 -58 -113 -89 -178 -89c-105 0 -145 73 -151 73c-5 0 -71 -76 -157 -76c-68 0 -114 51 -114 112v1
c0 38 18 70 42 89c52 42 176 48 176 48c7 2 8 8 8 22v28c0 32 -4 57 -24 80c-16 18 -37 27 -58 27c-57 0 -82 -61 -86 -67c-6 -7 -14 -11 -23 -11c-18 0 -39 14 -39 36c0 35 68 89 155 89c103 0 117 -57 132 -57c3 0 6 2 9 5c16 15 60 52 123 52z" />
    <glyph glyph-name="ccedilla" unicode="&#xe7;" horiz-adv-x="381" 
d="M289 -120c0 -32 -17 -75 -82 -75c-32 0 -75 9 -79 13c-3 2 -4 4 -4 7c0 1 3 24 14 24c1 0 33 -8 52 -8c22 0 38 13 38 32c0 27 -29 49 -71 52c-2 0 -5 0 -5 3c0 1 15 38 22 58c-94 16 -157 98 -157 211c0 136 86 231 214 231c72 0 127 -36 127 -74c0 -23 -19 -38 -40 -38
c-46 0 -63 60 -121 60c-61 0 -114 -70 -114 -154c0 -93 66 -176 158 -176c78 0 99 54 122 54c9 0 17 -7 17 -17c0 -6 -3 -12 -6 -16c-32 -44 -90 -85 -165 -85h-3c-6 -18 -8 -20 -8 -22s1 -3 4 -3h3c48 0 84 -26 84 -76v-1z" />
    <glyph glyph-name="egrave" unicode="&#xe8;" horiz-adv-x="409" 
d="M32 662c0 22 18 37 37 37h1c28 0 46 -28 55 -42c100 -149 105 -152 105 -165c0 -10 -8 -20 -19 -20h-2c-12 0 -12 3 -152 145c-7 7 -25 23 -25 45zM22 206c0 140 85 225 185 225c69 0 135 -45 172 -96c4 -5 8 -13 8 -22v-1c0 -30 -52 -40 -81 -50
c-207 -71 -213 -70 -213 -79c0 -12 22 -145 148 -145c44 0 88 19 119 49c5 5 13 14 23 14c9 0 16 -6 16 -15c0 -4 -2 -10 -7 -16c-41 -53 -106 -89 -177 -89c-82 0 -193 54 -193 225zM290 310c0 12 -49 66 -105 66c-58 0 -96 -54 -96 -143c0 -6 3 -7 5 -7c3 0 185 71 187 72
c6 3 9 8 9 12z" />
    <glyph glyph-name="eacute" unicode="&#xe9;" horiz-adv-x="409" 
d="M272 699c20 0 37 -15 37 -37c0 -18 -11 -31 -24 -45c-46 -47 -134 -136 -139 -140c-4 -3 -9 -5 -15 -5c-12 0 -19 10 -19 20c0 13 2 13 105 165c9 14 26 42 55 42zM22 206c0 140 85 225 185 225c69 0 135 -45 172 -96c4 -5 8 -13 8 -22v-1c0 -30 -52 -40 -81 -50
c-207 -71 -213 -70 -213 -79c0 -12 22 -145 148 -145c44 0 88 19 119 49c5 5 13 14 23 14c9 0 16 -6 16 -15c0 -4 -2 -10 -7 -16c-41 -53 -106 -89 -177 -89c-82 0 -193 54 -193 225zM290 310c0 12 -49 66 -105 66c-58 0 -96 -54 -96 -143c0 -6 3 -7 5 -7c3 0 185 71 187 72
c6 3 9 8 9 12z" />
    <glyph glyph-name="ecircumflex" unicode="&#xea;" horiz-adv-x="409" 
d="M134 471c-5 0 -15 3 -15 15c0 7 44 137 62 177c3 7 12 29 29 29c27 0 43 -61 89 -194c1 -3 3 -7 3 -11c0 -13 -11 -16 -15 -16c-11 0 -17 8 -26 23c-40 70 -41 75 -50 75c-11 0 -13 -8 -53 -77c-8 -13 -15 -21 -24 -21zM22 206c0 140 85 225 185 225
c69 0 135 -45 172 -96c4 -5 8 -13 8 -22v-1c0 -30 -52 -40 -81 -50c-207 -71 -213 -70 -213 -79c0 -12 22 -145 148 -145c44 0 88 19 119 49c5 5 13 14 23 14c9 0 16 -6 16 -15c0 -4 -2 -10 -7 -16c-41 -53 -106 -89 -177 -89c-82 0 -193 54 -193 225zM290 310
c0 12 -49 66 -105 66c-58 0 -96 -54 -96 -143c0 -6 3 -7 5 -7c3 0 185 71 187 72c6 3 9 8 9 12z" />
    <glyph glyph-name="edieresis" unicode="&#xeb;" horiz-adv-x="409" 
d="M230 618c0 26 23 47 48 47c27 0 48 -21 48 -46c0 -27 -22 -48 -48 -48s-48 20 -48 47zM95 618c0 26 23 47 48 47c27 0 48 -21 48 -46c0 -27 -22 -48 -48 -48s-48 20 -48 47zM22 206c0 140 85 225 185 225c69 0 135 -45 172 -96c4 -5 8 -13 8 -22v-1
c0 -30 -52 -40 -81 -50c-207 -71 -213 -70 -213 -79c0 -12 22 -145 148 -145c44 0 88 19 119 49c5 5 13 14 23 14c9 0 16 -6 16 -15c0 -4 -2 -10 -7 -16c-41 -53 -106 -89 -177 -89c-82 0 -193 54 -193 225zM290 310c0 12 -49 66 -105 66c-58 0 -96 -54 -96 -143
c0 -6 3 -7 5 -7c3 0 185 71 187 72c6 3 9 8 9 12z" />
    <glyph glyph-name="igrave" unicode="&#xec;" horiz-adv-x="243" 
d="M15 671c0 22 18 37 37 37h1c28 0 46 -28 55 -42c100 -149 105 -152 105 -165c0 -10 -8 -20 -19 -20h-2c-12 0 -12 3 -152 145c-7 7 -25 23 -25 45zM165 121c0 116 1 174 1 193c0 16 -4 15 -68 41c-5 2 -12 5 -12 13c0 12 16 16 27 21c104 50 105 52 110 52h1
c6 0 14 -4 14 -16c0 -8 -6 -105 -6 -227v-33c0 -122 1 -125 23 -128c33 -5 45 -4 45 -21c0 -8 -1 -22 -12 -22c-3 0 -43 6 -92 6c-50 0 -89 -6 -92 -6c-10 0 -15 7 -15 17c0 23 4 21 49 27c25 4 27 18 27 36v47z" />
    <glyph glyph-name="iacute" unicode="&#xed;" horiz-adv-x="243" 
d="M184 708c20 0 37 -15 37 -37c0 -18 -11 -31 -24 -45c-46 -47 -134 -136 -139 -140c-4 -3 -9 -5 -15 -5c-12 0 -19 10 -19 20c0 13 2 13 105 165c9 14 26 42 55 42zM94 121c0 116 1 174 1 193c0 16 -4 15 -68 41c-5 2 -12 5 -12 13c0 12 16 16 27 21c104 50 105 52 110 52
h1c6 0 14 -4 14 -16c0 -8 -6 -105 -6 -227v-33c0 -122 1 -125 23 -128c33 -5 45 -4 45 -21c0 -8 -1 -22 -12 -22c-3 0 -43 6 -92 6c-50 0 -89 -6 -92 -6c-10 0 -15 7 -15 17c0 23 4 21 49 27c25 4 27 18 27 36v47z" />
    <glyph glyph-name="icircumflex" unicode="&#xee;" horiz-adv-x="243" 
d="M42 481c-5 0 -15 3 -15 15c0 7 44 137 62 177c3 7 12 29 29 29c27 0 43 -61 89 -194c1 -3 3 -7 3 -11c0 -13 -11 -16 -15 -16c-11 0 -17 8 -26 23c-40 70 -41 75 -50 75c-11 0 -13 -8 -53 -77c-8 -13 -15 -21 -24 -21zM94 121c0 116 1 174 1 193c0 16 -4 15 -68 41
c-5 2 -12 5 -12 13c0 12 16 16 27 21c104 50 105 52 110 52h1c6 0 14 -4 14 -16c0 -8 -6 -105 -6 -227v-33c0 -122 1 -125 23 -128c33 -5 45 -4 45 -21c0 -8 -1 -22 -12 -22c-3 0 -43 6 -92 6c-50 0 -89 -6 -92 -6c-10 0 -15 7 -15 17c0 23 4 21 49 27c25 4 27 18 27 36v47z
" />
    <glyph glyph-name="idieresis" unicode="&#xef;" horiz-adv-x="243" 
d="M94 121c0 116 1 174 1 193c0 16 -4 15 -68 41c-5 2 -12 5 -12 13c0 12 16 16 27 21c104 50 105 52 110 52h1c6 0 14 -4 14 -16c0 -8 -6 -105 -6 -227v-33c0 -122 1 -125 23 -128c33 -5 45 -4 45 -21c0 -8 -1 -22 -12 -22c-3 0 -43 6 -92 6c-50 0 -89 -6 -92 -6
c-10 0 -15 7 -15 17c0 23 4 21 49 27c25 4 27 18 27 36v47zM130 618c0 26 23 47 48 47c27 0 48 -21 48 -46c0 -27 -22 -48 -48 -48s-48 20 -48 47zM-5 618c0 26 23 47 48 47c27 0 48 -21 48 -46c0 -27 -22 -48 -48 -48s-48 20 -48 47z" />
    <glyph glyph-name="ntilde" unicode="&#xf1;" horiz-adv-x="499" 
d="M299 622c46 0 66 46 78 46c4 0 19 -6 19 -13c0 -8 -32 -47 -56 -65c-14 -11 -34 -22 -58 -22c-51 0 -67 45 -107 45c-44 0 -62 -52 -70 -52c-4 0 -13 10 -13 15c0 4 31 52 45 66c12 12 27 23 50 23c45 0 67 -43 112 -43zM141 377c0 -3 2 -4 3 -4h1c4 0 51 59 137 60h2
c45 0 132 -20 142 -144c2 -17 2 -34 2 -51s-1 -35 -1 -173v-2c0 -28 13 -26 48 -31c13 -2 14 -11 14 -18c0 -17 -9 -20 -15 -20c-9 0 -34 6 -84 6c-44 0 -80 -6 -82 -6c-12 0 -14 10 -14 20c0 18 12 16 52 23c13 2 16 7 16 24v155c0 18 -1 78 -13 108c-22 51 -77 60 -100 60
c-58 0 -99 -47 -103 -65c-1 -4 -1 -9 -1 -13v-237v-3c0 -11 1 -25 22 -28c42 -7 54 -5 54 -27c0 -10 -4 -18 -13 -18c-3 0 -44 7 -93 7c-48 0 -85 -6 -88 -6c-6 0 -16 4 -16 18c0 20 8 19 39 24c25 4 26 17 26 34v239c0 24 0 22 -45 56c-3 3 -6 6 -6 10v1c0 8 2 7 95 57
c3 2 6 4 10 4c9 0 12 -7 12 -15v-39c0 -2 -1 -5 -1 -6z" />
    <glyph glyph-name="ograve" unicode="&#xf2;" horiz-adv-x="467" 
d="M55 662c0 22 18 37 37 37h1c28 0 46 -28 55 -42c100 -149 105 -152 105 -165c0 -10 -8 -20 -19 -20h-2c-12 0 -12 3 -152 145c-7 7 -25 23 -25 45zM21 204c0 139 104 228 216 228c119 0 209 -94 209 -228c0 -143 -101 -223 -213 -223c-127 0 -212 100 -212 223zM236 30
c85 0 142 81 142 170c0 107 -72 185 -148 185c-52 0 -131 -42 -131 -176c0 -104 55 -179 137 -179z" />
    <glyph glyph-name="oacute" unicode="&#xf3;" horiz-adv-x="467" 
d="M295 699c20 0 37 -15 37 -37c0 -18 -11 -31 -24 -45c-46 -47 -134 -136 -139 -140c-4 -3 -9 -5 -15 -5c-12 0 -19 10 -19 20c0 13 2 13 105 165c9 14 26 42 55 42zM21 204c0 139 104 228 216 228c119 0 209 -94 209 -228c0 -143 -101 -223 -213 -223
c-127 0 -212 100 -212 223zM236 30c85 0 142 81 142 170c0 107 -72 185 -148 185c-52 0 -131 -42 -131 -176c0 -104 55 -179 137 -179z" />
    <glyph glyph-name="ocircumflex" unicode="&#xf4;" horiz-adv-x="467" 
d="M157 472c-5 0 -15 3 -15 15c0 7 44 137 62 177c3 7 12 29 29 29c27 0 43 -61 89 -194c1 -3 3 -7 3 -11c0 -13 -11 -16 -15 -16c-11 0 -17 8 -26 23c-40 70 -41 75 -50 75c-11 0 -13 -8 -53 -77c-8 -13 -15 -21 -24 -21zM21 204c0 139 104 228 216 228
c119 0 209 -94 209 -228c0 -143 -101 -223 -213 -223c-127 0 -212 100 -212 223zM236 30c85 0 142 81 142 170c0 107 -72 185 -148 185c-52 0 -131 -42 -131 -176c0 -104 55 -179 137 -179z" />
    <glyph glyph-name="otilde" unicode="&#xf5;" horiz-adv-x="467" 
d="M287 622c46 0 66 46 78 46c4 0 19 -6 19 -13c0 -8 -32 -47 -56 -65c-14 -11 -34 -22 -58 -22c-51 0 -67 45 -107 45c-44 0 -62 -52 -70 -52c-4 0 -13 10 -13 15c0 4 31 52 45 66c12 12 27 23 50 23c45 0 67 -43 112 -43zM21 204c0 139 104 228 216 228
c119 0 209 -94 209 -228c0 -143 -101 -223 -213 -223c-127 0 -212 100 -212 223zM236 30c85 0 142 81 142 170c0 107 -72 185 -148 185c-52 0 -131 -42 -131 -176c0 -104 55 -179 137 -179z" />
    <glyph glyph-name="odieresis" unicode="&#xf6;" horiz-adv-x="467" 
d="M254 618c0 26 23 47 48 47c27 0 48 -21 48 -46c0 -27 -22 -48 -48 -48s-48 20 -48 47zM119 618c0 26 23 47 48 47c27 0 48 -21 48 -46c0 -27 -22 -48 -48 -48s-48 20 -48 47zM21 204c0 139 104 228 216 228c119 0 209 -94 209 -228c0 -143 -101 -223 -213 -223
c-127 0 -212 100 -212 223zM236 30c85 0 142 81 142 170c0 107 -72 185 -148 185c-52 0 -131 -42 -131 -176c0 -104 55 -179 137 -179z" />
    <glyph glyph-name="divide" unicode="&#xf7;" horiz-adv-x="701" 
d="M76 231c-16 0 -23 4 -23 22v13c0 21 12 22 23 22h552c13 0 20 -3 20 -19v-14c0 -23 -14 -24 -26 -24h-546zM285 400c0 29 25 52 54 52s52 -23 52 -51c0 -29 -24 -52 -53 -52s-53 22 -53 51zM345 67c-28 0 -53 22 -53 52c0 29 23 51 52 51s53 -23 53 -52s-23 -51 -52 -51z
" />
    <glyph glyph-name="oslash" unicode="&#xf8;" horiz-adv-x="467" 
d="M446 204c0 -143 -101 -223 -213 -223c-30 0 -59 6 -87 18c-9 -17 -14 -32 -28 -32c-32 0 -35 6 -35 13c0 5 6 14 22 43c-49 37 -84 102 -84 181c0 139 104 228 216 228c29 0 58 -7 85 -18c18 34 21 45 34 45c21 0 36 -3 36 -17c0 -6 -7 -17 -28 -54
c56 -43 82 -115 82 -184zM236 30c85 0 142 81 142 170c0 40 -12 92 -45 132l-160 -285c22 -13 44 -17 63 -17zM230 385c-52 0 -131 -42 -131 -176c0 -38 8 -89 38 -128l158 284c-17 11 -39 20 -65 20z" />
    <glyph glyph-name="ugrave" unicode="&#xf9;" horiz-adv-x="505" 
d="M69 662c0 22 18 37 37 37h1c28 0 46 -28 55 -42c100 -149 105 -152 105 -165c0 -10 -8 -20 -19 -20h-2c-12 0 -12 3 -152 145c-7 7 -25 23 -25 45zM359 33c-5 0 -56 -51 -139 -51c-81 0 -141 53 -153 145c-2 20 -3 40 -3 61c0 32 1 145 1 161c0 9 0 18 -27 28
c-18 8 -31 4 -31 21v3c0 7 1 13 11 14c83 5 94 6 104 6c8 0 10 -5 10 -12v-205c0 -30 0 -67 18 -103c16 -31 53 -67 106 -67c38 0 67 18 85 36c15 17 17 18 17 30v246c0 28 -15 27 -66 36c-10 2 -15 6 -15 16c0 13 6 16 14 17c98 3 110 4 123 4c14 0 15 -10 15 -20v-313
c0 -12 6 -9 50 -30c7 -3 8 -6 8 -12c0 -30 -14 -7 -100 -54c-3 -2 -7 -4 -11 -4c-12 0 -14 10 -14 20v23c0 4 -2 4 -3 4z" />
    <glyph glyph-name="uacute" unicode="&#xfa;" horiz-adv-x="505" 
d="M309 699c20 0 37 -15 37 -37c0 -18 -11 -31 -24 -45c-46 -47 -134 -136 -139 -140c-4 -3 -9 -5 -15 -5c-12 0 -19 10 -19 20c0 13 2 13 105 165c9 14 26 42 55 42zM359 33c-5 0 -56 -51 -139 -51c-81 0 -141 53 -153 145c-2 20 -3 40 -3 61c0 32 1 145 1 161
c0 9 0 18 -27 28c-18 8 -31 4 -31 21v3c0 7 1 13 11 14c83 5 94 6 104 6c8 0 10 -5 10 -12v-205c0 -30 0 -67 18 -103c16 -31 53 -67 106 -67c38 0 67 18 85 36c15 17 17 18 17 30v246c0 28 -15 27 -66 36c-10 2 -15 6 -15 16c0 13 6 16 14 17c98 3 110 4 123 4
c14 0 15 -10 15 -20v-313c0 -12 6 -9 50 -30c7 -3 8 -6 8 -12c0 -30 -14 -7 -100 -54c-3 -2 -7 -4 -11 -4c-12 0 -14 10 -14 20v23c0 4 -2 4 -3 4z" />
    <glyph glyph-name="ucircumflex" unicode="&#xfb;" horiz-adv-x="505" 
d="M171 471c-5 0 -15 3 -15 15c0 7 44 137 62 177c3 7 12 29 29 29c27 0 43 -61 89 -194c1 -3 3 -7 3 -11c0 -13 -11 -16 -15 -16c-11 0 -17 8 -26 23c-40 70 -41 75 -50 75c-11 0 -13 -8 -53 -77c-8 -13 -15 -21 -24 -21zM359 33c-5 0 -56 -51 -139 -51
c-81 0 -141 53 -153 145c-2 20 -3 40 -3 61c0 32 1 145 1 161c0 9 0 18 -27 28c-18 8 -31 4 -31 21v3c0 7 1 13 11 14c83 5 94 6 104 6c8 0 10 -5 10 -12v-205c0 -30 0 -67 18 -103c16 -31 53 -67 106 -67c38 0 67 18 85 36c15 17 17 18 17 30v246c0 28 -15 27 -66 36
c-10 2 -15 6 -15 16c0 13 6 16 14 17c98 3 110 4 123 4c14 0 15 -10 15 -20v-313c0 -12 6 -9 50 -30c7 -3 8 -6 8 -12c0 -30 -14 -7 -100 -54c-3 -2 -7 -4 -11 -4c-12 0 -14 10 -14 20v23c0 4 -2 4 -3 4z" />
    <glyph glyph-name="udieresis" unicode="&#xfc;" horiz-adv-x="505" 
d="M267 618c0 26 23 47 48 47c27 0 48 -21 48 -46c0 -27 -22 -48 -48 -48s-48 20 -48 47zM132 618c0 26 23 47 48 47c27 0 48 -21 48 -46c0 -27 -22 -48 -48 -48s-48 20 -48 47zM359 33c-5 0 -56 -51 -139 -51c-81 0 -141 53 -153 145c-2 20 -3 40 -3 61c0 32 1 145 1 161
c0 9 0 18 -27 28c-18 8 -31 4 -31 21v3c0 7 1 13 11 14c83 5 94 6 104 6c8 0 10 -5 10 -12v-205c0 -30 0 -67 18 -103c16 -31 53 -67 106 -67c38 0 67 18 85 36c15 17 17 18 17 30v246c0 28 -15 27 -66 36c-10 2 -15 6 -15 16c0 13 6 16 14 17c98 3 110 4 123 4
c14 0 15 -10 15 -20v-313c0 -12 6 -9 50 -30c7 -3 8 -6 8 -12c0 -30 -14 -7 -100 -54c-3 -2 -7 -4 -11 -4c-12 0 -14 10 -14 20v23c0 4 -2 4 -3 4z" />
    <glyph glyph-name="yacute" unicode="&#xfd;" horiz-adv-x="468" 
d="M295 699c20 0 37 -15 37 -37c0 -18 -11 -31 -24 -45c-46 -47 -134 -136 -139 -140c-4 -3 -9 -5 -15 -5c-12 0 -19 10 -19 20c0 13 2 13 105 165c9 14 26 42 55 42zM92 -223c-22 0 -39 16 -39 36c0 40 51 52 88 87c26 24 67 87 67 115c0 22 -29 84 -111 248
c-18 34 -53 99 -55 102c-16 21 -38 0 -38 33c0 10 3 17 14 17c7 0 31 -3 78 -3s71 3 79 3c11 0 13 -8 13 -16c0 -22 -7 -20 -37 -23c-7 -1 -15 -3 -15 -14c0 -9 41 -118 109 -246c0 -2 2 -6 7 -6c6 0 8 8 10 10c52 124 82 202 82 235c0 24 -15 20 -48 23c-9 1 -19 4 -19 19
c0 11 7 18 19 18c7 0 31 -3 78 -3h1c46 0 69 3 76 3c12 0 12 -9 12 -20c0 -16 -7 -15 -39 -19c-21 -3 -9 -3 -79 -177c-45 -109 -106 -249 -179 -360c-24 -37 -45 -62 -74 -62z" />
    <glyph glyph-name="ydieresis" unicode="&#xff;" horiz-adv-x="468" 
d="M254 618c0 26 23 47 48 47c27 0 48 -21 48 -46c0 -27 -22 -48 -48 -48s-48 20 -48 47zM119 618c0 26 23 47 48 47c27 0 48 -21 48 -46c0 -27 -22 -48 -48 -48s-48 20 -48 47zM92 -223c-22 0 -39 16 -39 36c0 40 51 52 88 87c26 24 67 87 67 115c0 22 -29 84 -111 248
c-18 34 -53 99 -55 102c-16 21 -38 0 -38 33c0 10 3 17 14 17c7 0 31 -3 78 -3s71 3 79 3c11 0 13 -8 13 -16c0 -22 -7 -20 -37 -23c-7 -1 -15 -3 -15 -14c0 -9 41 -118 109 -246c0 -2 2 -6 7 -6c6 0 8 8 10 10c52 124 82 202 82 235c0 24 -15 20 -48 23c-9 1 -19 4 -19 19
c0 11 7 18 19 18c7 0 31 -3 78 -3h1c46 0 69 3 76 3c12 0 12 -9 12 -20c0 -16 -7 -15 -39 -19c-21 -3 -9 -3 -79 -177c-45 -109 -106 -249 -179 -360c-24 -37 -45 -62 -74 -62z" />
    <glyph glyph-name="ncommaaccent" unicode="&#x146;" horiz-adv-x="499" 
d="M237 -47c47 0 88 -51 88 -115c0 -89 -80 -132 -101 -132c-10 0 -19 6 -19 17c0 17 20 18 43 39s26 38 26 47c0 51 -65 26 -90 63c-5 7 -8 16 -8 26c0 32 30 55 61 55zM141 377c0 -3 2 -4 3 -4h1c4 0 51 59 137 60h2c45 0 132 -20 142 -144c2 -17 2 -34 2 -51
s-1 -35 -1 -173v-2c0 -28 13 -26 48 -31c13 -2 14 -11 14 -18c0 -17 -9 -20 -15 -20c-9 0 -34 6 -84 6c-44 0 -80 -6 -82 -6c-12 0 -14 10 -14 20c0 18 12 16 52 23c13 2 16 7 16 24v155c0 18 -1 78 -13 108c-22 51 -77 60 -100 60c-58 0 -99 -47 -103 -65
c-1 -4 -1 -9 -1 -13v-237v-3c0 -11 1 -25 22 -28c42 -7 54 -5 54 -27c0 -10 -4 -18 -13 -18c-3 0 -44 7 -93 7c-48 0 -85 -6 -88 -6c-6 0 -16 4 -16 18c0 20 8 19 39 24c25 4 26 17 26 34v239c0 24 0 22 -45 56c-3 3 -6 6 -6 10v1c0 8 2 7 95 57c3 2 6 4 10 4
c9 0 12 -7 12 -15v-39c0 -2 -1 -5 -1 -6z" />
    <glyph glyph-name="OE" unicode="&#x152;" horiz-adv-x="1018" 
d="M638 97c0 -27 8 -42 124 -42c32 0 124 6 145 21c7 6 13 18 57 93c6 11 15 17 22 17c10 0 17 -9 17 -23v-1c0 -6 -1 -9 -30 -142c-5 -19 -15 -20 -32 -20h-278c-151 0 -210 -24 -262 -24c-210 0 -383 171 -383 377c0 202 167 367 368 367c63 0 104 -12 143 -19
c44 -8 102 -10 102 -10h305c16 0 18 -9 20 -16l28 -126v-3c0 -14 -12 -21 -24 -21c-19 0 -20 13 -23 20l-43 73c-10 17 -14 20 -30 20h-194c-20 0 -31 -12 -31 -24v-165c0 -7 3 -22 15 -22h158c17 0 38 1 38 33v31c0 15 13 23 26 23c23 0 29 -14 29 -30v-184
c0 -18 -7 -29 -27 -29c-23 0 -28 9 -28 22v54c0 20 -12 22 -26 22h-112c-64 0 -74 -4 -74 -40v-232zM371 667h-1c-123 0 -258 -85 -258 -283c0 -173 96 -350 285 -350c45 0 92 10 136 37c14 8 15 8 15 33v497c-53 47 -117 66 -177 66z" />
    <glyph glyph-name="oe" unicode="&#x153;" horiz-adv-x="763" 
d="M564 431c69 0 135 -45 171 -96c4 -5 9 -13 9 -22v-1c-1 -30 -53 -40 -82 -50c-206 -71 -212 -70 -212 -79c0 -12 22 -145 148 -145c44 0 88 19 119 49c4 5 13 14 23 14c9 0 16 -6 16 -15c0 -4 -2 -10 -7 -16c-41 -53 -107 -89 -177 -89c-75 0 -132 39 -162 91
c-38 -58 -106 -91 -177 -91c-127 0 -212 100 -212 223c0 139 104 228 216 228c67 0 134 -33 173 -95c28 49 81 94 154 94zM647 310c0 12 -49 66 -105 66c-58 0 -96 -54 -96 -143c0 -6 3 -7 5 -7s185 71 187 72c6 3 9 8 9 12zM236 30c85 0 142 81 142 170
c0 107 -72 185 -148 185c-52 0 -131 -42 -131 -176c0 -104 55 -179 137 -179z" />
    <glyph glyph-name="Scaron" unicode="&#x160;" horiz-adv-x="492" 
d="M355 879c7 0 15 -6 15 -14c0 -9 0 -6 -86 -113c-6 -8 -19 -24 -38 -24c-10 0 -16 4 -25 14c-89 110 -94 113 -94 122c0 6 5 15 16 15c10 0 20 -8 26 -14c54 -46 65 -58 79 -58c26 0 83 72 107 72zM32 516c0 89 74 169 179 169c81 0 116 -40 129 -40c15 0 18 40 42 40
c9 0 16 -8 16 -19c0 -8 -4 -33 -4 -83c0 -49 4 -73 4 -81c0 -10 -7 -15 -17 -15h-1c-32 1 -21 37 -69 92c-27 30 -66 56 -110 56c-56 0 -97 -42 -97 -94c0 -37 20 -69 51 -91c54 -39 126 -38 190 -65c72 -31 126 -96 126 -187c0 -119 -96 -215 -219 -215
c-58 0 -114 22 -152 55c-10 9 -17 14 -31 14c-10 0 -17 -3 -26 -3c-14 0 -18 9 -18 15c0 12 14 49 23 163c1 11 5 21 22 21c21 0 22 -9 28 -58c7 -70 -4 -45 26 -85c25 -34 70 -66 129 -66c79 0 145 61 145 139c0 44 -22 84 -58 110c-58 42 -122 39 -189 66
c-82 32 -119 97 -119 162z" />
    <glyph glyph-name="scaron" unicode="&#x161;" horiz-adv-x="338" 
d="M254 693c5 0 15 -3 15 -15c0 -7 -44 -138 -62 -177c-3 -7 -12 -29 -29 -29c-27 0 -43 61 -89 194c-1 3 -3 7 -3 11c0 13 11 16 15 16c11 0 17 -8 26 -23c13 -23 39 -68 40 -70c4 -5 8 -5 10 -5c11 0 13 8 53 76c8 14 15 22 24 22zM31 309c0 60 54 118 144 118
c30 0 45 -5 50 -5c9 0 13 10 25 10s15 -14 16 -19c6 -35 19 -101 19 -105c0 -13 -15 -16 -23 -16c-21 0 -18 29 -32 49c-13 18 -49 39 -82 39c-34 0 -63 -21 -63 -53c0 -14 5 -51 79 -72c51 -14 98 -17 135 -60c26 -30 30 -63 30 -79c0 -64 -53 -135 -152 -135
c-46 0 -109 16 -138 50c-10 11 -12 19 -12 34c0 27 -1 46 -1 60c0 26 3 31 18 31c25 0 9 -34 23 -62c10 -21 56 -59 114 -59c45 0 81 27 81 67c0 66 -88 76 -120 85c-81 23 -111 73 -111 122z" />
    <glyph glyph-name="Ydieresis" unicode="&#x178;" horiz-adv-x="667" 
d="M367 775c0 26 23 47 48 47c27 0 48 -21 48 -46c0 -27 -22 -48 -48 -48s-48 20 -48 47zM232 775c0 26 23 47 48 47c27 0 48 -21 48 -46c0 -27 -22 -48 -48 -48s-48 20 -48 47zM490 21v-8c0 -9 -3 -19 -16 -19c-5 0 -66 6 -141 6c-77 0 -138 -6 -142 -6c-12 0 -25 6 -25 28
c0 27 12 22 78 26c14 1 29 0 29 22v207c0 24 -6 30 -21 55c-184 295 -179 288 -184 295c-19 24 -42 5 -53 26c-2 3 -4 8 -4 14c0 9 5 22 25 22c11 0 44 -3 110 -3s98 3 109 3c15 0 18 -10 18 -20c0 -30 -14 -26 -65 -30c-8 -1 -26 -3 -26 -23v-2c0 -10 4 -14 142 -253
c6 -10 8 -14 14 -14c5 0 7 5 8 6c149 205 175 236 175 264c0 49 -92 1 -92 52c0 8 5 20 21 20c9 0 36 -3 89 -3h3c54 1 80 3 89 3c21 0 28 -12 28 -20c0 -21 -28 -24 -52 -55l-145 -187c-103 -140 -104 -131 -104 -162v-195c0 -24 13 -20 110 -25c18 -1 22 -10 22 -24z" />
    <glyph glyph-name="Zdotaccent" unicode="&#x17b;" horiz-adv-x="629" 
d="M260 821c0 32 28 57 58 57c32 0 58 -25 58 -56s-27 -56 -58 -56c-32 0 -58 24 -58 55zM16 511c0 15 8 60 8 150v37c0 22 12 28 21 28c16 0 22 -15 26 -24c5 -16 27 -27 55 -27h436c20 0 24 -11 24 -18c0 -10 -7 -17 -90 -126l-145 -182c-58 -70 -115 -142 -160 -222
c-2 -3 -5 -9 -5 -15c0 -22 23 -23 100 -28c32 -2 65 -3 98 -3h21c73 0 123 2 148 61c12 29 17 90 24 104c2 3 8 10 19 10c9 0 24 -8 24 -28v-1c0 -42 -7 -62 -12 -104c-7 -72 1 -118 -39 -123h-523h-2c-7 0 -28 1 -28 21c0 8 4 14 8 19c130 184 272 361 422 527
c14 16 14 18 14 22s-2 11 -14 11h-323c-50 0 -46 -14 -66 -92c-2 -8 -6 -22 -21 -22c-8 0 -20 6 -20 25z" />
    <glyph glyph-name="zdotaccent" unicode="&#x17c;" horiz-adv-x="361" 
d="M123 549c0 32 28 57 58 57c32 0 58 -25 58 -56s-27 -56 -58 -56c-32 0 -58 24 -58 55zM65 454h6c23 0 3 -37 28 -37h218c12 0 22 -4 22 -15c0 -6 -4 -10 -6 -14c-226 -307 -227 -305 -227 -312c0 -10 8 -11 16 -11h145c6 0 12 -1 15 -1c19 0 17 10 27 61c1 3 3 16 17 16
c7 0 24 -3 24 -17c0 -4 -13 -63 -13 -143c0 -32 1 -48 1 -54c0 -15 -10 -20 -30 -20c-14 0 -17 8 -17 18v60c0 14 -8 15 -17 15h-232c-26 0 -30 14 -30 23c0 12 8 22 13 30l204 275c3 3 6 8 6 13c0 11 -10 14 -20 14h-119c-14 0 -13 -6 -22 -45c-1 -3 -3 -16 -17 -16
c-5 0 -18 3 -18 13c0 3 10 44 10 102v30c0 12 8 15 16 15z" />
    <glyph glyph-name="Zcaron" unicode="&#x17d;" horiz-adv-x="629" 
d="M424 887c7 0 15 -6 15 -14c0 -9 0 -6 -86 -113c-6 -8 -19 -24 -38 -24c-10 0 -16 4 -25 14c-89 110 -94 113 -94 122c0 6 5 15 16 15c10 0 20 -8 26 -14c54 -46 65 -58 79 -58c26 0 83 72 107 72zM16 511c0 15 8 60 8 150v37c0 22 12 28 21 28c16 0 22 -15 26 -24
c5 -16 27 -27 55 -27h436c20 0 24 -11 24 -18c0 -10 -7 -17 -90 -126l-145 -182c-58 -70 -115 -142 -160 -222c-2 -3 -5 -9 -5 -15c0 -22 23 -23 100 -28c32 -2 65 -3 98 -3h21c73 0 123 2 148 61c12 29 17 90 24 104c2 3 8 10 19 10c9 0 24 -8 24 -28v-1
c0 -42 -7 -62 -12 -104c-7 -72 1 -118 -39 -123h-523h-2c-7 0 -28 1 -28 21c0 8 4 14 8 19c130 184 272 361 422 527c14 16 14 18 14 22s-2 11 -14 11h-323c-50 0 -46 -14 -66 -92c-2 -8 -6 -22 -21 -22c-8 0 -20 6 -20 25z" />
    <glyph glyph-name="zcaron" unicode="&#x17e;" horiz-adv-x="361" 
d="M257 715c5 0 15 -3 15 -15c0 -7 -44 -138 -62 -177c-3 -7 -12 -29 -29 -29c-27 0 -43 61 -89 194c-1 3 -3 7 -3 11c0 13 11 16 15 16c11 0 17 -8 26 -23c13 -23 39 -68 40 -70c4 -5 8 -5 10 -5c11 0 13 8 53 76c8 14 15 22 24 22zM65 454h6c23 0 3 -37 28 -37h218
c12 0 22 -4 22 -15c0 -6 -4 -10 -6 -14c-226 -307 -227 -305 -227 -312c0 -10 8 -11 16 -11h145c6 0 12 -1 15 -1c19 0 17 10 27 61c1 3 3 16 17 16c7 0 24 -3 24 -17c0 -4 -13 -63 -13 -143c0 -32 1 -48 1 -54c0 -15 -10 -20 -30 -20c-14 0 -17 8 -17 18v60
c0 14 -8 15 -17 15h-232c-26 0 -30 14 -30 23c0 12 8 22 13 30l204 275c3 3 6 8 6 13c0 11 -10 14 -20 14h-119c-14 0 -13 -6 -22 -45c-1 -3 -3 -16 -17 -16c-5 0 -18 3 -18 13c0 3 10 44 10 102v30c0 12 8 15 16 15z" />
    <glyph glyph-name="circumflex" unicode="&#x2c6;" horiz-adv-x="215" 
d="M31 479c-5 0 -15 3 -15 15c0 7 44 137 62 177c3 7 12 29 29 29c27 0 43 -61 89 -194c1 -3 3 -7 3 -11c0 -13 -11 -16 -15 -16c-11 0 -17 8 -26 23c-40 70 -41 75 -50 75c-11 0 -13 -8 -53 -77c-8 -13 -15 -21 -24 -21z" />
    <glyph glyph-name="tilde" unicode="&#x2dc;" horiz-adv-x="336" 
d="M223 622c46 0 66 46 78 46c4 0 19 -6 19 -13c0 -8 -32 -47 -56 -65c-14 -11 -34 -22 -58 -22c-51 0 -67 45 -107 45c-44 0 -62 -52 -70 -52c-4 0 -13 10 -13 15c0 4 31 52 45 66c12 12 27 23 50 23c45 0 67 -43 112 -43z" />
    <glyph glyph-name="endash" unicode="&#x2013;" horiz-adv-x="527" 
d="M27 250v4c0 12 1 25 14 25h446c12 0 14 -13 14 -25v-2c0 -13 0 -28 -14 -28h-446c-14 0 -14 14 -14 26z" />
    <glyph glyph-name="emdash" unicode="&#x2014;" horiz-adv-x="1068" 
d="M27 250v4c0 12 1 25 14 25h987c13 0 14 -15 14 -25v-2c0 -22 -3 -28 -14 -28h-987c-14 0 -14 14 -14 26z" />
    <glyph glyph-name="quoteleft" unicode="&#x2018;" 
d="M125 464c-35 0 -86 28 -86 112c0 80 42 111 56 111c11 -1 19 -10 19 -20c0 -15 -36 -30 -36 -67c0 -15 8 -38 43 -38c6 0 12 1 18 1c40 0 50 -27 50 -43c0 -25 -23 -56 -64 -56z" />
    <glyph glyph-name="quoteright" unicode="&#x2019;" 
d="M102 684c35 0 87 -28 87 -112c0 -80 -42 -110 -57 -110c-11 0 -19 9 -19 19c0 16 36 31 36 68c0 14 -8 37 -43 37c-6 0 -12 -1 -18 -1c-40 0 -49 27 -49 43c0 25 22 56 63 56z" />
    <glyph glyph-name="quotesinglbase" unicode="&#x201a;" 
d="M102 54c34 0 86 -28 86 -112c0 -80 -42 -110 -56 -110c-11 0 -19 9 -19 19c0 16 35 31 35 68c0 14 -7 37 -43 37c-6 0 -11 -1 -17 -1c-40 0 -50 27 -50 43c0 25 23 56 64 56z" />
    <glyph glyph-name="quotedblleft" unicode="&#x201c;" horiz-adv-x="416" 
d="M315 464c-35 0 -87 28 -87 112c0 80 42 111 57 111c11 -1 19 -10 19 -20c0 -15 -36 -30 -36 -67c0 -15 7 -38 43 -38c6 0 12 1 18 1c40 0 49 -27 49 -43c0 -25 -22 -56 -63 -56zM125 464c-35 0 -87 28 -87 112c0 80 42 111 57 111c11 -1 19 -10 19 -20
c0 -15 -36 -30 -36 -67c0 -15 7 -38 43 -38c6 0 12 1 18 1c40 0 49 -27 49 -43c0 -25 -22 -56 -63 -56z" />
    <glyph glyph-name="quotedblright" unicode="&#x201d;" horiz-adv-x="416" 
d="M102 684c34 0 86 -28 86 -112c0 -80 -42 -110 -56 -110h-1c-10 0 -18 10 -18 19c0 16 35 31 35 68c0 14 -7 37 -43 37c-6 0 -11 -1 -17 -1c-40 0 -50 27 -50 43c0 25 23 56 64 56zM292 684c34 0 86 -28 86 -112c0 -80 -42 -110 -56 -110h-1c-10 0 -18 10 -18 19
c0 16 35 31 35 68c0 14 -7 37 -43 37c-6 0 -11 -1 -17 -1c-40 0 -50 27 -50 43c0 25 23 56 64 56z" />
    <glyph glyph-name="quotedblbase" unicode="&#x201e;" horiz-adv-x="416" 
d="M102 54c34 0 86 -28 86 -112c0 -80 -42 -110 -56 -110c-11 0 -19 9 -19 19c0 16 35 31 35 68c0 14 -7 37 -43 37c-6 0 -11 -1 -17 -1c-40 0 -50 27 -50 43c0 25 23 56 64 56zM292 54c34 0 86 -28 86 -112c0 -80 -42 -110 -56 -110c-11 0 -19 9 -19 19c0 16 35 31 35 68
c0 14 -7 37 -43 37c-6 0 -11 -1 -17 -1c-40 0 -50 27 -50 43c0 25 23 56 64 56z" />
    <glyph glyph-name="bullet" unicode="&#x2022;" horiz-adv-x="286" 
d="M143 188c-46 0 -80 39 -80 80c0 46 39 80 80 80c46 0 80 -39 80 -80c0 -46 -39 -80 -80 -80z" />
    <glyph glyph-name="guilsinglleft" unicode="&#x2039;" horiz-adv-x="223" 
d="M185 334c8 0 16 -12 16 -19c0 -6 0 -5 -96 -114c-2 -2 -4 -4 -4 -7c0 -6 3 -8 95 -115c2 -2 4 -5 4 -8c0 -8 -8 -19 -16 -19c-6 0 -5 0 -157 132c-2 2 -5 5 -5 9c0 5 3 8 7 11c151 130 150 130 156 130z" />
    <glyph glyph-name="guilsinglright" unicode="&#x203a;" horiz-adv-x="223" 
d="M38 334c6 0 4 0 156 -130c4 -3 7 -6 7 -11v-1c0 -6 -3 -6 -152 -135c-3 -3 -6 -5 -10 -5c-7 0 -16 9 -16 18c0 3 1 6 4 9c92 107 95 110 95 114c0 3 -1 5 -4 8l-92 104c-3 3 -4 6 -4 10c0 9 10 19 16 19z" />
    <glyph glyph-name="Euro" unicode="&#x20ac;" horiz-adv-x="713" 
d="M451 594c-86 0 -206 -45 -258 -188h437l-25 -61h-425c0 -5 -1 -13 -1 -24c0 -12 1 -20 1 -25h404l-26 -62h-365c45 -134 169 -188 256 -188c140 0 212 94 215 97l4 -1v-78c-60 -48 -129 -78 -215 -78c-111 0 -265 57 -324 248h-105l25 62h70v49h-99l25 61h84
c56 192 224 248 316 248c99 0 172 -28 248 -100c-17 -42 -28 -63 -28 -63c-13 21 -85 103 -214 103z" />
    <glyph glyph-name="trademark" unicode="&#x2122;" horiz-adv-x="919" 
d="M830 421c0 -23 6 -22 36 -24c6 0 12 -3 12 -14c0 -8 -4 -13 -12 -13c-6 0 -24 3 -60 3h-2c-38 0 -56 -3 -62 -3c-10 0 -12 8 -12 14c0 13 15 13 34 15c16 2 18 8 18 24v103c0 77 0 79 -2 79c0 0 -8 -5 -50 -84c-85 -156 -83 -156 -94 -156h-2c-20 1 -24 59 -142 239
c0 1 0 1 -2 1c0 -10 -2 -61 -2 -101c0 -99 0 -103 10 -103c18 -2 38 0 38 -18c0 -8 -4 -13 -10 -13s-24 3 -58 3c-36 0 -54 -3 -60 -3s-10 5 -10 13c0 17 18 16 38 18c12 2 12 -2 20 121c4 48 6 108 6 120c0 4 -18 39 -50 40c-6 0 -12 2 -12 10c0 10 4 13 10 13h70
c8 0 11 -2 14 -7l92 -153c60 -96 60 -96 64 -96c2 0 4 3 4 5l128 237c4 8 4 14 14 14h72c6 0 10 -2 10 -13c0 -24 -50 -6 -50 -31c0 -24 0 -47 2 -234v-6zM278 370c-6 0 -26 3 -64 3h-2c-40 0 -60 -3 -66 -3c-4 0 -12 2 -12 15c0 15 10 13 38 15c12 2 14 7 14 16v246
c0 8 0 13 -10 13h-74c-14 0 -12 0 -34 -44c0 -3 -4 -11 -14 -11c-4 0 -12 4 -12 15c0 3 14 68 14 68c2 6 4 8 12 8h284c13 0 11 -4 22 -70c0 -1 2 -3 2 -5c0 -9 -8 -13 -12 -13c-8 0 -12 8 -14 10c-22 40 -20 42 -34 42h-72c-8 0 -8 -4 -8 -11v-254c0 -10 3 -10 42 -12
c10 -1 10 -5 10 -16c0 -7 -4 -12 -10 -12z" />
  </font>
</defs>
</svg>
